<?xml version="1.0" encoding="UTF-8" standalone="no"?>
<svg
   width="181.41669"
   height="304.12564"
   viewBox="0 0 181.41669 304.12564"
   fill="none"
   version="1.1"
   id="svg820"
   sodipodi:docname="avatar.svg"
   inkscape:version="1.2.2 (b0a84865, 2022-12-01)"
   xmlns:inkscape="http://www.inkscape.org/namespaces/inkscape"
   xmlns:sodipodi="http://sodipodi.sourceforge.net/DTD/sodipodi-0.dtd"
   xmlns="http://www.w3.org/2000/svg"
   xmlns:svg="http://www.w3.org/2000/svg">
  <sodipodi:namedview
     id="namedview822"
     pagecolor="#ffffff"
     bordercolor="#000000"
     borderopacity="0.25"
     inkscape:showpageshadow="2"
     inkscape:pageopacity="0.0"
     inkscape:pagecheckerboard="0"
     inkscape:deskcolor="#d1d1d1"
     showgrid="false"
     inkscape:zoom="0.51504865"
     inkscape:cx="193.18563"
     inkscape:cy="241.72474"
     inkscape:window-width="1512"
     inkscape:window-height="945"
     inkscape:window-x="0"
     inkscape:window-y="37"
     inkscape:window-maximized="0"
     inkscape:current-layer="g813" />
  <g
     clip-path="url(#clip0_435_1378)"
     id="g813"
     transform="translate(-393.004,-248.48636)">
    <path
       d="m 523.693,319.008 c -13.665,4.639 -76.768,26.04 -91.384,30.69 -16.413,5.221 -10.7,21.887 -10.7,21.887 l 7.747,36.683 c 0,0 -20.672,21.75 -34.854,10.061 v -1.49 c 14.182,-5.971 6.964,-37.792 6.964,-37.792 0,0 -4.466,-25.618 3.234,-44.018 7.7,-18.4 62.913,-32.582 81.313,-40.529 18.4,-7.947 25.861,-41.037 25.861,-41.037 l 9.944,24.371 28.6,-27.848 -11.435,38.289 c 0,0 47,-30.585 30.342,-16.412 -16.55,14.087 -34.928,91.807 -35.182,92.885 -5.443,-24.413 -10.45,-45.74 -10.45,-45.74 z"
       fill="#171717"
       id="path567" />
    <path
       d="m 538.541,449.358 c 7.483,8.084 11.879,17.976 11.879,28.65 0,16.55 -10.579,31.209 -26.822,40.192 -11.543,6.217 -24.47,9.416 -37.581,9.3 -15.588,0 -29.877,-4.249 -41.016,-11.34 -14.288,-9.078 -23.388,-22.8 -23.388,-38.152 0,-12.481 6.014,-23.895 15.948,-32.592 11.805,-10.357 29.137,-16.889 48.456,-16.889 21.676,0 40.846,8.223 52.524,20.831 z m -34.621,10.008 c 0,-9.617 -10.072,-17.417 -22.5,-17.417 -12.428,0 -22.5,7.8 -22.5,17.417 0,9.617 10.071,17.406 22.5,17.406 12.429,0 22.5,-7.8 22.5,-17.406 z"
       fill="#171717"
       id="path569" />
    <path
       d="m 568.746,541.439 c 0.116,-10.812 -1.459,-13.528 -7.43,-17.628 -5.971,-4.1 -13.675,-4.471 -20.914,-4.7 l -16.593,-0.539"
       stroke="#171717"
       stroke-width="3"
       stroke-linecap="round"
       stroke-linejoin="round"
       id="path581" />
    <path
       d="m 538.541,449.358 c 7.483,8.084 11.879,17.976 11.879,28.65 0,16.55 -10.579,31.209 -26.822,40.192 -11.543,6.217 -24.47,9.416 -37.581,9.3 -15.588,0 -29.877,-4.249 -41.016,-11.34 -14.288,-9.078 -23.388,-22.8 -23.388,-38.152 0,-12.481 6.014,-23.895 15.948,-32.592 11.805,-10.357 29.137,-16.889 48.456,-16.889 21.676,0 40.846,8.223 52.524,20.831 z"
       stroke="#171717"
       stroke-width="3"
       stroke-linecap="round"
       stroke-linejoin="round"
       id="path601" />
    <path
       d="m 503.92,459.366 c 0,9.606 -10.072,17.406 -22.5,17.406 -12.428,0 -22.5,-7.8 -22.5,-17.406 0,-9.606 10.071,-17.417 22.5,-17.417 12.429,0 22.5,7.8 22.5,17.417 z"
       stroke="#171717"
       stroke-width="3"
       stroke-linecap="round"
       stroke-linejoin="round"
       id="path603" />
    <path
       d="m 437.076,444.844 -7.715,-36.577 -7.747,-36.683 c 0,0 -5.717,-16.666 10.7,-21.887 14.616,-4.65 77.719,-26.051 91.384,-30.69 l 2.61,-0.888"
       stroke="#171717"
       stroke-width="3"
       stroke-linecap="round"
       stroke-linejoin="round"
       id="path605" />
    <path
       d="m 534.145,364.748 c -5.443,-24.413 -10.452,-45.74 -10.452,-45.74"
       stroke="#171717"
       stroke-width="3"
       stroke-linecap="round"
       stroke-linejoin="round"
       id="path607" />
    <path
       d="m 540.137,449.019 c 0,0 7.048,-2.842 7.556,-14.277 0.274,-6.267 -6.953,-40.393 -13.548,-69.984"
       stroke="#171717"
       stroke-width="3"
       stroke-linecap="round"
       stroke-linejoin="round"
       id="path609" />
    <path
       d="m 517.352,341.867 c 0,0 -33.068,7.461 -35.932,9.945 -2.864,2.484 -5.591,4.724 -3.361,9.7 2.23,4.976 21.887,51.964 21.887,51.964 0,0 3.234,4.228 -1.49,7.218 -4.724,2.99 -8.952,4.228 -11.192,4.228"
       stroke="#171717"
       stroke-width="3"
       stroke-linecap="round"
       stroke-linejoin="round"
       id="path611" />
    <path
       d="m 458.921,381.487 -2.991,-8.909"
       stroke="#171717"
       stroke-width="3"
       stroke-linecap="round"
       stroke-linejoin="round"
       id="path613" />
    <path
       d="m 505.663,370.337 -1.743,-7.958"
       stroke="#171717"
       stroke-width="3"
       stroke-linecap="round"
       stroke-linejoin="round"
       id="path615" />
    <path
       d="m 468.863,454.082 c 0,0 0.994,9 17.153,6.774"
       stroke="#171717"
       stroke-width="3"
       stroke-linecap="round"
       stroke-linejoin="round"
       id="path617" />
    <path
       d="m 429.36,408.268 c 0,0 -20.672,21.75 -34.854,10.061"
       stroke="#171717"
       stroke-width="3"
       stroke-linecap="round"
       stroke-linejoin="round"
       id="path619" />
    <path
       d="m 534.145,364.758 v -0.01 c 0.254,-1.078 18.632,-78.8 35.182,-92.885 16.656,-14.173 -30.342,16.412 -30.342,16.412 l 11.435,-38.289 -28.6,27.848 -9.944,-24.371 c 0,0 -7.462,33.079 -25.861,41.037 -18.399,7.958 -73.6,22.13 -81.313,40.529 -7.713,18.399 -3.234,44.018 -3.234,44.018 0,0 7.218,31.821 -6.964,37.792"
       stroke="#171717"
       stroke-width="3"
       stroke-linecap="round"
       stroke-linejoin="round"
       id="path621" />
    <path
       d="m 429.049,544.651 1.476,-14.922"
       stroke="#171717"
       stroke-width="3"
       stroke-linecap="round"
       stroke-linejoin="round"
       id="path661" />
    <path
       d="m 448.018,546.149 1.391,-13.438"
       stroke="#171717"
       stroke-width="3"
       stroke-linecap="round"
       stroke-linejoin="round"
       id="path663" />
    <path
       d="m 465.879,550.123 1.492,-12.93"
       stroke="#171717"
       stroke-width="3"
       stroke-linecap="round"
       stroke-linejoin="round"
       id="path665" />
    <path
       d="m 481.246,551.112 1.966,-13.928"
       stroke="#171717"
       stroke-width="3"
       stroke-linecap="round"
       stroke-linejoin="round"
       id="path667" />
    <path
       d="m 502.277,549.641 1.951,-12.936"
       stroke="#171717"
       stroke-width="3"
       stroke-linecap="round"
       stroke-linejoin="round"
       id="path669" />
    <path
       d="m 523.631,547.146 1.4,-15.923"
       stroke="#171717"
       stroke-width="3"
       stroke-linecap="round"
       stroke-linejoin="round"
       id="path671" />
    <path
       d="M 544.953,545.649 V 531.227"
       stroke="#171717"
       stroke-width="3"
       stroke-linecap="round"
       stroke-linejoin="round"
       id="path673" />
    <g
       opacity="0.1"
       id="g811">
      <path
         d="m 519.569,313.583 c -7.194,0.874 -14.027,4.722 -20.988,6.758 -7.316,2.14 -14.83,3.7 -22.25,5.439 -14.745,3.459 -31.565,6.721 -43.147,17.186 -12.023,10.864 -12.774,28.033 -10.025,42.905 1.465,7.922 4.332,15.475 6.43,23.233 1.144,3.795 1.899,7.695 2.254,11.642 0.26,4.278 -0.548,8.243 -0.972,12.479 -0.978,9.762 15,14.284 18.955,5.134 6.914,-16.014 0.3,-33.378 -4.41,-49.06 -3.048,-10.156 -6.579,-24.9 2.879,-32.85 4.979,-4.187 11.9,-6.34 17.981,-8.3 6.79,-2.192 13.707,-3.958 20.578,-5.872 6.993,-1.962 13.827,-4.453 20.443,-7.449 6.2,-2.792 13.722,-6.637 17.089,-12.847 1.806,-3.331 -0.371,-8.934 -4.817,-8.394 z"
         fill="#171717"
         id="path809" />
    </g>
  </g>
  <defs
     id="defs818">
    <clipPath
       id="clip0_435_1378">
      <rect
         width="884"
         height="875"
         fill="#ffffff"
         transform="translate(38,43)"
         id="rect815"
         x="0"
         y="0" />
    </clipPath>
  </defs>
</svg>
