<?xml version="1.0" encoding="UTF-8" standalone="no"?>
<svg
   width="960"
   height="960"
   viewBox="0 0 960 960"
   fill="none"
   version="1.1"
   id="svg743"
   sodipodi:docname="front_image.svg"
   inkscape:version="1.2.2 (b0a84865, 2022-12-01)"
   xmlns:inkscape="http://www.inkscape.org/namespaces/inkscape"
   xmlns:sodipodi="http://sodipodi.sourceforge.net/DTD/sodipodi-0.dtd"
   xmlns="http://www.w3.org/2000/svg"
   xmlns:svg="http://www.w3.org/2000/svg">
  <sodipodi:namedview
     id="namedview745"
     pagecolor="#ffffff"
     bordercolor="#000000"
     borderopacity="0.25"
     inkscape:showpageshadow="2"
     inkscape:pageopacity="0"
     inkscape:pagecheckerboard="true"
     inkscape:deskcolor="#d1d1d1"
     showgrid="false"
     showguides="false"
     inkscape:zoom="0.53442974"
     inkscape:cx="375.16625"
     inkscape:cy="558.53927"
     inkscape:window-width="1512"
     inkscape:window-height="945"
     inkscape:window-x="0"
     inkscape:window-y="37"
     inkscape:window-maximized="0"
     inkscape:current-layer="g736" />
  <g
     clip-path="url(#clip0_510_1402)"
     id="g736">
    <path
       fill-rule="evenodd"
       clip-rule="evenodd"
       d="M663.101 438.913C663.523 439.325 663.815 439.597 663.956 439.718C663.691 439.429 663.405 439.16 663.101 438.913ZM641.015 299.645C649.924 307.89 657.094 313.682 657.406 313.933C652.558 308.507 647.052 303.708 641.015 299.645ZM608.204 244.852C597.163 255.581 622.734 282.731 640.995 299.624C632.538 294.225 622.701 291.278 616.318 300.221C603.467 318.209 657.415 376.673 660.14 379.609C658.151 377.595 630.448 350.083 618.14 367.409C606.335 384.02 655.486 431.693 663.068 438.893C660.283 436.55 651.826 431.462 641.801 444.725C633.262 456.001 650.669 479.487 662.155 492.817C658.342 490.695 653.495 490.212 647.955 494.556C641.147 499.896 648.286 515.924 657.216 530.716C662.429 539.334 668.229 547.529 672.229 552.949C675.084 556.82 677.025 559.285 677.196 559.485C680.776 558.912 685.217 558.228 690.017 557.564C694.623 556.921 699.54 556.297 704.317 555.815C704.075 555 692.049 513.762 701.189 502.631C708.55 493.651 714.855 498.408 717.107 500.69C712.08 494.788 687.071 464.42 694.321 451.629C702.155 437.808 720.647 458.543 721.602 459.629C720.355 457.904 684.688 408.229 701.189 388.229C717.69 368.229 742.186 406.259 743.04 407.586C741.993 405.706 705.189 338.819 721.64 324.819C726.627 320.578 732.399 320.558 738.04 322.619C741.227 290.341 717.034 299.27 717.034 299.27C717.034 299.27 762.937 251.004 750.157 235.86C737.578 220.946 705.722 257.44 704.757 258.546C705.909 256.967 750.837 195.276 730.757 167.724C710.401 139.801 673.501 205.101 673.501 205.101C673.501 205.101 654.57 147.847 632.337 165.353C610.345 182.663 655.422 253.152 656.451 254.761L656.461 254.777L656.461 254.776C655.7 254.161 624.56 228.956 608.204 244.852ZM671.114 502.611C670.914 502.199 667.595 495.844 662.155 492.817C666.992 498.458 670.783 502.279 671.114 502.611ZM682.467 226.81C682.462 225.982 681.787 225.314 680.959 225.318C680.13 225.323 679.462 225.998 679.467 226.827L680.967 226.818C679.467 226.827 679.467 226.828 679.467 226.83L679.467 226.84L679.467 226.882L679.468 227.046L679.472 227.694C679.475 228.266 679.48 229.114 679.487 230.222C679.501 232.438 679.523 235.691 679.553 239.838C679.613 248.132 679.707 260.003 679.843 274.313C680.114 302.933 680.553 341.309 681.223 380.331C681.893 419.351 682.793 459.025 683.987 490.239C684.584 505.845 685.255 519.348 686.009 529.602C686.385 534.728 686.783 539.057 687.205 542.437C687.621 545.77 688.075 548.313 688.598 549.779C688.877 550.559 689.735 550.966 690.516 550.687C691.296 550.408 691.702 549.55 691.423 548.77C691.025 547.655 690.601 545.421 690.182 542.065C689.769 538.757 689.375 534.485 689 529.382C688.251 519.18 687.581 505.717 686.985 490.125C685.792 458.943 684.892 419.293 684.223 380.28C683.553 341.268 683.114 302.9 682.843 274.285C682.707 259.977 682.613 248.108 682.553 239.816C682.523 235.67 682.501 232.419 682.487 230.203C682.48 229.096 682.475 228.247 682.472 227.676L682.468 227.029L682.467 226.865L682.467 226.824L682.467 226.813C682.467 226.811 682.467 226.81 680.967 226.818L682.467 226.81Z"
       fill="#171717"
       id="path450"
       style="fill:#afe9c6" />
    <path
       d="M778.615 540.212C783.441 542.857 786.125 545.793 786.125 548.88C786.125 549.051 786.115 549.223 786.095 549.393C785.595 554.682 777.237 559.479 763.823 563.109C760.565 559.388 755.265 556.723 748.722 554.853L748.48 554.169C756.967 551.113 768.692 546.195 776.797 539.961L778.615 540.212Z"
       fill="#171717"
       id="path452" />
    <path
       d="M717.406 501.036C717.677 501.358 717.858 501.579 717.939 501.66C717.868 501.569 717.687 501.338 717.406 501.036ZM815.95 359.354C816.463 359.123 828.197 353.773 843.281 345.538C858.434 339.746 874.754 337.363 877.449 352.265C882.578 380.692 785.824 422.885 782.877 424.165C785.09 423.38 838.343 404.738 846.217 424.195C854.261 444.075 773.345 467.263 773.345 467.263C773.345 467.263 821.138 463.472 823.974 483.11C826.749 502.296 757.256 508.39 754.058 508.661C756.099 508.551 785.673 507.193 786.125 525.373C786.256 530.733 782.395 535.66 776.794 539.964C768.689 546.198 756.964 551.116 748.477 554.172C742.213 556.435 737.708 557.672 737.708 557.672L737.457 558.185C733.639 556.457 729.549 555.405 725.37 555.077C720.342 554.554 712.549 554.997 704.314 555.832C704.072 555.017 692.046 513.779 701.186 502.648C708.547 493.668 714.852 498.425 717.104 500.707C712.077 494.807 687.068 464.437 694.318 451.646C702.152 437.82 720.644 458.555 721.599 459.646C720.352 457.916 684.675 408.232 701.186 388.246C717.697 368.26 742.186 406.276 743.037 407.603C741.992 405.723 705.188 338.834 721.637 324.836C726.625 320.593 732.397 320.573 738.037 322.636C751.037 327.383 763.357 343.17 763.809 343.743C762.974 342.536 727.619 291.082 751.572 273.736C765.297 263.792 786.122 307.804 786.122 307.804C786.122 307.804 777.474 230.669 789.601 223.57C801.447 216.651 814.79 279.538 815.434 282.605C814.67 278.563 795.584 175.544 819.245 163.478C843.378 151.17 859.94 218.371 859.94 218.371C859.94 218.371 911.04 193.292 919.85 214.107C928.387 234.289 846.75 292.707 841.729 296.291C846.154 293.391 910.147 252.137 911.514 283.199C912.439 304.094 871.845 329.977 843.278 345.553C833.779 349.337 824.634 353.955 815.95 359.354V359.354Z"
       fill="white"
       fill-opacity="0.96"
       id="path454"
       style="fill:#d5ffe6" />
    <path
       d="M642.834 533.586C647.128 532.57 651.844 531.675 656.912 530.911L657.212 530.73C662.42 539.348 668.222 547.543 672.225 552.963L671.651 553.385C662.712 554.36 656.91 555.275 656.91 555.275L642.834 533.586Z"
       fill="#171717"
       id="path456" />
    <path
       d="M657.405 313.933C657.093 313.682 649.923 307.89 641.014 299.645C647.05 303.707 652.556 308.507 657.405 313.933V313.933Z"
       fill="#171717"
       id="path458" />
    <path
       d="M578.348 494.57L533.581 497.808L533.39 497.818C533.129 489.241 532.665 479.839 532.062 470.095L557.935 467.26C557.935 467.26 584.543 480.915 578.348 494.57Z"
       fill="white"
       fill-opacity="0.96"
       id="path460" />
    <path
       d="M507.477 781.343H507.377C507.41 781.333 507.444 781.333 507.477 781.343Z"
       fill="#171717"
       id="path462" />
    <path
       d="M562.893 522.976L531.309 566.276H456.062L500.076 522.976H504.875L505.851 522.936L504.875 500.774L503.689 473.974L498.651 360.427L506.817 352.262L521.729 356.525C521.729 356.525 528.857 418.206 532.065 470.092C532.665 479.836 533.132 489.238 533.393 497.815C533.665 507.438 533.675 516.026 533.323 522.915L534.68 522.975L562.893 522.976Z"
       fill="#171717"
       id="path464" />
    <path
       d="m 652.68,828.372 -26.617,4.786 v -56.431 l -118.585,4.615 c -0.032,-0.01 -0.067,-0.01 -0.1,0 l -36.22,1.418 c 5.983,-54.249 9.623,-151.878 9.985,-180.637 0.09,-6.858 -2.243,-12.026 -6.134,-15.948 l 193.639,-12.8 -11.484,183.4 z"
       fill="#171717"
       id="path466"
       sodipodi:nodetypes="ccccccccccc" />
    <path
       d="m 632.00969,686.78356 c -0.362,28.759 -0.42336,35.416 -6.40836,89.665 L 78.8115,798.025 v 81.983 h -24.5 L 40.4805,614.895 666.4853,575.23444 c 3.892,3.925 -34.38561,104.69112 -34.47561,111.54912 z"
       fill="#171717"
       id="path468"
       sodipodi:nodetypes="cccccccc" />
    <path
       d="M542.661 120.516L528.242 197.772L497.231 160.858L456.305 197.772L437.964 170.381L420.578 195.881L406.378 177.188L396.178 184.498L401.407 113.426L542.661 120.516ZM481.454 149.737C481.454 147.537 480.802 145.387 479.58 143.557C478.358 141.728 476.621 140.303 474.589 139.461C472.556 138.619 470.32 138.398 468.163 138.827C466.005 139.256 464.023 140.316 462.468 141.871C460.912 143.426 459.853 145.408 459.423 147.566C458.994 149.723 459.214 151.959 460.056 153.992C460.898 156.024 462.324 157.761 464.153 158.983C465.982 160.205 468.132 160.858 470.332 160.858C471.792 160.858 473.239 160.571 474.588 160.012C475.938 159.453 477.164 158.634 478.197 157.601C479.23 156.569 480.049 155.343 480.608 153.993C481.166 152.644 481.454 151.197 481.454 149.737V149.737Z"
       fill="white"
       fill-opacity="0.96"
       id="path470" />
    <path
       d="M456.306 197.771L497.232 160.857L528.243 197.771L522.783 226.993L393.6 219.531L396.184 184.498L406.38 177.188L420.579 195.881L437.965 170.38L456.306 197.771Z"
       fill="#171717"
       id="path472"
       style="fill:#ffffff" />
    <path
       d="M293.98 403.678C313.568 402.702 341.965 402.178 367.103 401.898C397.203 401.576 422.62 401.598 422.62 401.598L423.766 479.679L503.687 473.979L504.874 500.779L454.988 502.87L454.757 503.524C435.31 496.807 369.708 503.463 369.708 503.463L369.336 503.484L370.703 534.947L371.126 544.631C371.126 544.631 230.771 562.243 175.174 528.869L174.591 528.758L178.171 510.377C178.388 509.833 178.5 509.253 178.502 508.667C178.502 503.107 168.175 498.26 152.921 495.746L152.982 495.384C147.773 420.621 254.251 410 271.757 405.739C275.236 404.894 283.291 404.221 293.98 403.678Z"
       fill="white"
       fill-opacity="0.96"
       id="path476" />
    <path
       d="M367.101 401.901C341.963 402.182 313.566 402.701 293.978 403.681C293.887 403.289 291.464 392.217 295.416 390.126C296.532 389.533 302.404 389.181 310.328 388.98C321.942 388.68 337.94 388.708 349.715 388.789C358.856 388.859 365.442 388.949 365.442 388.949L367.101 401.901Z"
       fill="white"
       fill-opacity="0.96"
       id="path480" />
    <path
       d="M178.171 510.377C175.335 517.717 154.419 523.409 129.049 523.409C104.303 523.409 83.8004 517.989 80.1804 510.909L79.6074 508.666C79.6074 500.521 101.739 493.915 129.049 493.915C137.043 493.883 145.026 494.495 152.921 495.745C168.175 498.259 178.502 503.106 178.502 508.666L178.171 510.377Z"
       fill="#171717"
       id="path484" />
    <path
       d="M174.591 528.759L163.391 586.347C163.391 591.576 149.091 595.809 131.455 595.809C113.819 595.809 99.5077 591.576 99.5077 586.347L95.5077 570.701H95.4977L87.0917 537.859L85.1207 530.197L80.1797 510.911C83.7997 517.99 104.303 523.411 129.049 523.411C154.419 523.411 175.335 517.719 178.171 510.379L174.591 528.759Z"
       fill="white"
       fill-opacity="0.96"
       id="path486" />
    <path
       d="M40.4805 614.895L54.3165 880.008H78.8115V798.025L471.157 782.761L507.377 781.343H507.477L626.062 776.728V833.159L652.68 828.373L657.164 756.778L668.647 573.375L475.008 586.176L40.4805 614.895Z"
       stroke="#171717"
       stroke-width="3"
       stroke-linecap="round"
       stroke-linejoin="round"
       id="path488" />
    <path
       d="M504.872 522.977H500.076L456.062 566.276H531.309L562.893 522.977H534.677"
       stroke="#171717"
       stroke-width="3"
       stroke-linecap="round"
       stroke-linejoin="round"
       id="path490" />
    <path
       d="M506.814 544.626L505.848 522.936L504.873 500.774L503.686 473.974L498.648 360.427L506.814 352.262C506.814 352.262 516.105 518.831 514.979 544.624"
       stroke="#171717"
       stroke-width="3"
       stroke-linecap="round"
       stroke-linejoin="round"
       id="path492" />
    <path
       d="M506.814 352.266L521.726 356.529C521.726 356.529 528.855 418.21 532.063 470.096C532.663 479.84 533.129 489.242 533.39 497.819C533.662 507.442 533.672 516.03 533.32 522.919C532.998 529.304 532.355 534.231 531.309 537.178"
       stroke="#171717"
       stroke-width="3"
       stroke-linecap="round"
       stroke-linejoin="round"
       id="path494" />
    <path
       d="M503.686 473.977L423.765 479.678L422.619 401.597L420.578 262.479L580.631 296.547V464.776L557.936 467.26L532.063 470.095H532.053"
       stroke="#171717"
       stroke-width="3"
       stroke-linecap="round"
       stroke-linejoin="round"
       id="path496" />
    <path
       d="M175.174 528.87C230.774 562.244 371.126 544.627 371.126 544.627L370.703 534.943L369.336 503.48L368.763 490.448C368.763 490.448 223.642 512.338 216.15 482.403C212.49 467.732 230.821 463.941 230.821 463.941"
       stroke="#171717"
       stroke-width="3"
       stroke-linecap="round"
       stroke-linejoin="round"
       id="path508" />
    <path
       d="M422.62 401.6C422.62 401.6 397.2 401.58 367.103 401.9C341.965 402.181 313.568 402.7 293.98 403.68C283.291 404.223 275.236 404.896 271.757 405.741C254.251 410 147.773 420.621 152.982 495.384"
       stroke="#171717"
       stroke-width="3"
       stroke-linecap="round"
       stroke-linejoin="round"
       id="path510" />
    <path
       d="M293.98 403.689V403.679C293.889 403.287 291.466 392.215 295.418 390.124C296.534 389.531 302.406 389.179 310.33 388.978C321.944 388.678 337.942 388.706 349.717 388.787C358.858 388.857 365.444 388.947 365.444 388.947L367.101 401.901V401.911"
       stroke="#171717"
       stroke-width="3"
       stroke-linecap="round"
       stroke-linejoin="round"
       id="path512" />
    <path
       d="m 349.65534,388.69567 c 0,0 -7.15333,-16.38681 1.13019,-22.40994 8.28353,-6.02313 12.29223,-1.5034 15.54394,-12.79371 0.87468,-3.02694 1.59987,-9.82933 2.19678,-18.18707 2.6733,-17.84283 -0.5518,-23.79248 -0.1786,-34.9015 1.47209,-1.88046 -4.73163,-19.67601 -6.53344,-23.04065 -12.03513,-1.80228 -12.37153,0.45526 -12.37153,0.45526 0,0 -41.8652,-9.71705 -41.8546,17.37271 0.0106,7.52759 -0.17627,29.87879 0.30613,43.08811 0.71459,19.81875 1.3433,41.33279 -0.0106,50.36059"
       stroke="#171717"
       stroke-width="3.18067"
       stroke-linecap="round"
       stroke-linejoin="round"
       id="path514"
       sodipodi:nodetypes="cscccccccc" />
    <path
       d="m 345.31737,348.03056 c 0,0 -14.79753,3.26231 -16.5575,-7.02503"
       stroke="#171717"
       stroke-width="3.18067"
       stroke-linecap="round"
       stroke-linejoin="round"
       id="path534" />
    <path
       d="m 333.00041,333.07441 c 0,0 8.66353,1.67836 9.71647,0 1.05295,-1.67838 -2.09924,-29.01007 -2.09924,-29.01007"
       stroke="#171717"
       stroke-width="2.72948"
       stroke-linecap="round"
       stroke-linejoin="round"
       id="path536"
       sodipodi:nodetypes="csc" />
    <path
       d="m 352.28893,305.08011 v 6.76952"
       stroke="#171717"
       stroke-width="3.18067"
       stroke-linecap="round"
       stroke-linejoin="round"
       id="path538" />
    <path
       d="m 326.70257,305.08011 1.00191,6.76952"
       stroke="#171717"
       stroke-width="3.18067"
       stroke-linecap="round"
       stroke-linejoin="round"
       id="path540" />
    <path
       d="M40.4805 614.895L73.1205 560.947L87.0875 537.859"
       stroke="#171717"
       stroke-width="3"
       stroke-linecap="round"
       stroke-linejoin="round"
       id="path542" />
    <path
       d="M448.191 109.073L384.379 107.031V232.313L540.179 233.731L550.827 112.361L489.449 110.4L448.191 109.073Z"
       stroke="#171717"
       stroke-width="3"
       stroke-linecap="round"
       stroke-linejoin="round"
       id="path544" />
    <path
       d="M528.243 197.771L542.662 120.515L401.413 113.426L396.184 184.498L393.6 219.531L522.783 226.993L528.243 197.771Z"
       stroke="#171717"
       stroke-width="3"
       stroke-linecap="round"
       stroke-linejoin="round"
       id="path546" />
    <path
       d="M448.26 107.03L472.032 92.832L489.448 110.389"
       stroke="#171717"
       stroke-width="3"
       stroke-linecap="round"
       stroke-linejoin="round"
       id="path548" />
    <path
       d="M427.566 512.101C441.905 511.669 459.794 510.764 460.086 508.901C460.458 506.537 458.437 504.788 454.756 503.521C435.309 496.804 369.707 503.46 369.707 503.46"
       stroke="#171717"
       stroke-width="3"
       stroke-linecap="round"
       stroke-linejoin="round"
       id="path550" />
    <path
       d="M427.566 512.1C418.436 511.979 409.838 512.452 409.838 512.452C409.838 512.452 417.9 512.378 427.566 512.1Z"
       stroke="#171717"
       stroke-width="3"
       stroke-linecap="round"
       stroke-linejoin="round"
       id="path552" />
    <path
       d="M430.311 522.765C439.911 521.206 448.964 519.004 448.964 516.229C448.964 513.082 437.913 512.217 427.564 512.096"
       stroke="#171717"
       stroke-width="3"
       stroke-linecap="round"
       stroke-linejoin="round"
       id="path554" />
    <path
       d="M430.291 522.766C422.744 523.192 415.231 524.094 407.797 525.466C407.797 525.466 419.4 524.526 430.291 522.766Z"
       stroke="#171717"
       stroke-width="3"
       stroke-linecap="round"
       stroke-linejoin="round"
       id="path556" />
    <path
       d="M430.291 522.766H430.311"
       stroke="#171717"
       stroke-width="3"
       stroke-linecap="round"
       stroke-linejoin="round"
       id="path558" />
    <path
       d="M370.701 534.943C370.701 534.943 379.409 535.124 390.943 535.024C403.864 534.913 420.335 534.44 432.13 532.952C441.311 531.806 447.656 530.036 447.314 527.352C446.781 523.252 438.898 522.425 430.314 522.767"
       stroke="#171717"
       stroke-width="3"
       stroke-linecap="round"
       stroke-linejoin="round"
       id="path560" />
    <path
       d="M390.945 535.054L392.423 541.554C406.091 542.493 419.812 542.315 433.45 541.021C449.317 539.291 464.672 535.168 468.845 525.938C469.336 524.858 469.762 523.75 470.122 522.619C474.446 508.702 460.087 508.904 460.087 508.904"
       stroke="#171717"
       stroke-width="3"
       stroke-linecap="round"
       stroke-linejoin="round"
       id="path562" />
    <path
       d="M433.428 540.845L432.131 532.951"
       stroke="#171717"
       stroke-width="3"
       stroke-linecap="round"
       stroke-linejoin="round"
       id="path566" />
    <path
       d="M454.988 502.866L504.874 500.775"
       stroke="#171717"
       stroke-width="3"
       stroke-linecap="round"
       stroke-linejoin="round"
       id="path568" />
    <path
       d="M668.648 573.375L665.128 567.955L656.913 555.275L642.835 533.586L615.776 491.865L578.349 494.57L533.582 497.808"
       stroke="#171717"
       stroke-width="3"
       stroke-linecap="round"
       stroke-linejoin="round"
       id="path570" />
    <path
       d="M557.936 467.26C557.936 467.26 584.543 480.915 578.348 494.57"
       stroke="#171717"
       stroke-width="3"
       stroke-linecap="round"
       stroke-linejoin="round"
       id="path572" />
    <path
       d="M396.184 184.498L406.38 177.188L420.579 195.881L437.965 170.38L456.306 197.771L497.232 160.857L528.243 197.771"
       stroke="#171717"
       stroke-width="3"
       stroke-linecap="round"
       stroke-linejoin="round"
       id="path574" />
    <path
       d="M470.332 160.857C476.474 160.857 481.453 155.878 481.453 149.736C481.453 143.594 476.474 138.615 470.332 138.615C464.19 138.615 459.211 143.594 459.211 149.736C459.211 155.878 464.19 160.857 470.332 160.857Z"
       stroke="#171717"
       stroke-width="3"
       stroke-linecap="round"
       stroke-linejoin="round"
       id="path576" />
    <path
       d="M657.164 756.777C657.164 756.777 759.864 777.793 765.543 743.906C771.123 710.541 785.664 554.26 786.116 549.393C786.122 549.352 786.125 549.312 786.126 549.271"
       stroke="#171717"
       stroke-width="3"
       stroke-linecap="round"
       stroke-linejoin="round"
       id="path578" />
    <path
       d="M778.614 540.211C783.44 542.856 786.125 545.792 786.125 548.879C786.125 549.05 786.115 549.222 786.095 549.392C785.595 554.681 777.236 559.478 763.822 563.108C748.296 567.308 725.983 569.945 701.186 569.945C689.138 569.968 677.099 569.303 665.127 567.954L664.615 567.894"
       stroke="#171717"
       stroke-width="3"
       stroke-linecap="round"
       stroke-linejoin="round"
       id="path580" />
    <path
       d="M642.834 533.585C647.128 532.569 651.844 531.674 656.912 530.91"
       stroke="#171717"
       stroke-width="3"
       stroke-linecap="round"
       stroke-linejoin="round"
       id="path582" />
    <path
       d="M722.043 554.329C731.857 401.013 857.581 235.861 857.581 235.861"
       stroke="#171717"
       stroke-width="3"
       stroke-linecap="round"
       stroke-linejoin="round"
       id="path584" />
    <path
       d="M748.719 554.854C755.265 556.724 760.564 559.388 763.819 563.109"
       stroke="#171717"
       stroke-width="3"
       stroke-linecap="round"
       stroke-linejoin="round"
       id="path586" />
    <path
       d="M656.912 555.275C656.912 555.275 662.712 554.36 671.653 553.385"
       stroke="#171717"
       stroke-width="3"
       stroke-linecap="round"
       stroke-linejoin="round"
       id="path588" />
    <path
       d="M753.949 508.667C753.986 508.666 754.023 508.663 754.059 508.657C756.1 508.547 785.674 507.189 786.126 525.369C786.257 530.729 782.396 535.656 776.795 539.96C768.69 546.194 756.965 551.112 748.478 554.168C742.214 556.431 737.709 557.668 737.709 557.668"
       stroke="#171717"
       stroke-width="3"
       stroke-linecap="round"
       stroke-linejoin="round"
       id="path590" />
    <path
       d="M782.808 424.192C782.808 424.192 782.828 424.182 782.878 424.162C785.091 423.377 838.344 404.735 846.218 424.192C854.262 444.072 773.346 467.26 773.346 467.26C773.346 467.26 821.139 463.469 823.975 483.107C826.75 502.293 757.257 508.387 754.059 508.658"
       stroke="#171717"
       stroke-width="3"
       stroke-linecap="round"
       stroke-linejoin="round"
       id="path592" />
    <path
       d="M815.93 359.363C815.938 359.362 815.945 359.359 815.95 359.353C824.634 353.949 833.78 349.325 843.281 345.537C858.434 339.745 874.754 337.362 877.449 352.264C882.578 380.691 785.824 422.884 782.877 424.164"
       stroke="#171717"
       stroke-width="3"
       stroke-linecap="round"
       stroke-linejoin="round"
       id="path594" />
    <path
       d="M841.492 296.436C841.492 296.436 841.572 296.386 841.733 296.275C846.158 293.375 910.151 252.121 911.518 283.183C912.443 304.078 871.849 329.961 843.282 345.537C828.198 353.772 816.464 359.122 815.951 359.353"
       stroke="#171717"
       stroke-width="3"
       stroke-linecap="round"
       stroke-linejoin="round"
       id="path596" />
    <path
       d="M815.457 282.712C815.448 282.679 815.441 282.645 815.437 282.611V282.592C814.673 278.55 795.587 175.531 819.248 163.465C843.381 151.157 859.943 218.358 859.943 218.358C859.943 218.358 911.043 193.279 919.853 214.094C928.39 234.276 846.753 292.694 841.732 296.278"
       stroke="#171717"
       stroke-width="3"
       stroke-linecap="round"
       stroke-linejoin="round"
       id="path598" />
    <path
       d="M763.822 343.748C763.821 343.74 763.817 343.733 763.812 343.728C762.977 342.521 727.622 291.067 751.575 273.721C765.3 263.777 786.125 307.789 786.125 307.789C786.125 307.789 777.477 230.654 789.604 223.555C801.45 216.636 814.793 279.523 815.437 282.59"
       stroke="#171717"
       stroke-width="3"
       stroke-linecap="round"
       stroke-linejoin="round"
       id="path600" />
    <path
       d="M743.059 407.631C743.049 407.619 743.042 407.605 743.038 407.59C741.993 405.71 705.189 338.821 721.638 324.823C726.626 320.58 732.398 320.56 738.038 322.623C751.038 327.37 763.358 343.157 763.81 343.73"
       stroke="#171717"
       stroke-width="3"
       stroke-linecap="round"
       stroke-linejoin="round"
       id="path602" />
    <path
       d="M721.639 459.689C721.628 459.676 721.618 459.663 721.609 459.649L721.599 459.639C720.352 457.909 684.675 408.225 701.186 388.239C717.697 368.253 742.186 406.269 743.037 407.596"
       stroke="#171717"
       stroke-width="3"
       stroke-linecap="round"
       stroke-linejoin="round"
       id="path604" />
    <path
       d="M717.1 500.7C712.073 494.8 687.065 464.43 694.315 451.639C702.149 437.813 720.64 458.548 721.595 459.639"
       stroke="#171717"
       stroke-width="3"
       stroke-linecap="round"
       stroke-linejoin="round"
       id="path606" />
    <path
       d="M717.939 501.659C717.858 501.578 717.677 501.359 717.406 501.035"
       stroke="#171717"
       stroke-width="3"
       stroke-linecap="round"
       stroke-linejoin="round"
       id="path608" />
    <path
       d="M717.406 501.035C717.687 501.335 717.868 501.568 717.939 501.659C717.959 501.679 717.959 501.689 717.969 501.699L717.979 501.709"
       stroke="#171717"
       stroke-width="3"
       stroke-linecap="round"
       stroke-linejoin="round"
       id="path610" />
    <path
       d="M717.407 501.035L717.145 500.743C717.135 500.733 717.125 500.713 717.105 500.703"
       stroke="#171717"
       stroke-width="3"
       stroke-linecap="round"
       stroke-linejoin="round"
       id="path612" />
    <path
       d="M704.315 555.839V555.829C704.073 555.014 692.047 513.776 701.187 502.645C708.548 493.665 714.853 498.422 717.105 500.704"
       stroke="#171717"
       stroke-width="3"
       stroke-linecap="round"
       stroke-linejoin="round"
       id="path614" />
    <path
       d="M680.966 226.812C680.966 226.812 661.358 382.472 690.016 557.578"
       stroke="#171717"
       stroke-width="3"
       stroke-linecap="round"
       stroke-linejoin="round"
       id="path616"
       style="fill:#ffffff" />
    <path
       d="M704.736 258.577L704.756 258.557V258.547C705.721 257.441 737.577 220.947 750.156 235.861C762.936 251.005 717.033 299.271 717.033 299.271C717.033 299.271 741.226 290.342 738.039 322.62"
       stroke="#171717"
       stroke-width="3"
       stroke-linecap="round"
       stroke-linejoin="round"
       id="path618" />
    <path
       d="M656.471 254.787L656.461 254.777C655.767 253.691 610.261 182.729 632.337 165.353C654.57 147.847 673.501 205.101 673.501 205.101C673.501 205.101 710.401 139.801 730.757 167.724C750.837 195.276 705.909 256.967 704.757 258.546"
       stroke="#171717"
       stroke-width="3"
       stroke-linecap="round"
       stroke-linejoin="round"
       id="path620" />
    <path
       d="M640.995 299.625C622.734 282.732 597.163 255.582 608.204 244.853C624.564 228.953 655.716 254.175 656.461 254.778"
       stroke="#171717"
       stroke-width="3"
       stroke-linecap="round"
       stroke-linejoin="round"
       id="path622" />
    <path
       d="M657.415 313.943L657.405 313.933C657.093 313.682 649.923 307.89 641.014 299.645"
       stroke="#171717"
       stroke-width="3"
       stroke-linecap="round"
       stroke-linejoin="round"
       id="path624" />
    <path
       d="M641.014 299.645C647.05 303.707 652.556 308.507 657.405 313.933"
       stroke="#171717"
       stroke-width="3"
       stroke-linecap="round"
       stroke-linejoin="round"
       id="path626" />
    <path
       d="M641.014 299.644C641.014 299.633 641.004 299.633 640.994 299.623"
       stroke="#171717"
       stroke-width="3"
       stroke-linecap="round"
       stroke-linejoin="round"
       id="path628" />
    <path
       d="M660.141 379.606C657.416 376.67 603.468 318.206 616.319 300.218C622.704 291.278 632.538 294.224 640.995 299.623"
       stroke="#171717"
       stroke-width="3"
       stroke-linecap="round"
       stroke-linejoin="round"
       id="path630" />
    <path
       d="M660.251 379.716L660.241 379.706L660.201 379.666"
       stroke="#171717"
       stroke-width="3"
       stroke-linecap="round"
       stroke-linejoin="round"
       id="path632" />
    <path
       d="M660.201 379.666L660.241 379.706"
       stroke="#171717"
       stroke-width="3"
       stroke-linecap="round"
       stroke-linejoin="round"
       id="path634" />
    <path
       d="M660.201 379.665C660.186 379.641 660.165 379.62 660.141 379.605"
       stroke="#171717"
       stroke-width="3"
       stroke-linecap="round"
       stroke-linejoin="round"
       id="path636" />
    <path
       d="M663.066 438.893C655.484 431.693 606.333 384.02 618.138 367.409C630.446 350.083 658.149 377.595 660.138 379.609"
       stroke="#171717"
       stroke-width="3"
       stroke-linecap="round"
       stroke-linejoin="round"
       id="path638" />
    <path
       d="M663.951 439.717C663.81 439.596 663.518 439.324 663.096 438.912"
       stroke="#171717"
       stroke-width="3"
       stroke-linecap="round"
       stroke-linejoin="round"
       id="path640" />
    <path
       d="M663.1 438.912C663.404 439.16 663.689 439.429 663.955 439.717C663.972 439.74 663.992 439.76 664.015 439.777C664.025 439.787 664.035 439.787 664.035 439.797L664.045 439.807"
       stroke="#171717"
       stroke-width="3"
       stroke-linecap="round"
       stroke-linejoin="round"
       id="path642" />
    <path
       d="M663.1 438.913C663.09 438.913 663.08 438.903 663.07 438.893"
       stroke="#171717"
       stroke-width="3"
       stroke-linecap="round"
       stroke-linejoin="round"
       id="path644" />
    <path
       d="M671.131 502.645C671.131 502.645 671.131 502.635 671.11 502.625C670.779 502.293 666.988 498.472 662.151 492.831C650.668 479.487 633.261 456.001 641.8 444.725C651.825 431.462 660.282 436.55 663.067 438.893"
       stroke="#171717"
       stroke-width="3"
       stroke-linecap="round"
       stroke-linejoin="round"
       id="path646" />
    <path
       d="M677.194 559.508V559.498C677.023 559.298 675.082 556.833 672.227 552.962C668.227 547.542 662.427 539.347 657.214 530.729C648.284 515.937 641.145 499.909 647.953 494.569C653.493 490.225 658.34 490.708 662.153 492.83C667.593 495.857 670.911 502.212 671.112 502.624"
       stroke="#171717"
       stroke-width="3"
       stroke-linecap="round"
       stroke-linejoin="round"
       id="path648" />
    <path
       d="M178.5 508.667C178.499 509.253 178.386 509.833 178.169 510.377C175.333 517.717 154.417 523.409 129.047 523.409C104.301 523.409 83.7985 517.989 80.1785 510.909C79.8062 510.22 79.6094 509.45 79.6055 508.666C79.6055 500.521 101.737 493.915 129.047 493.915C137.041 493.883 145.024 494.495 152.919 495.745C168.174 498.26 178.5 503.107 178.5 508.667Z"
       stroke="#171717"
       stroke-width="3"
       stroke-linecap="round"
       stroke-linejoin="round"
       id="path650" />
    <path
       d="M163.389 586.346C163.389 591.575 149.089 595.808 131.453 595.808C113.817 595.808 99.5059 591.575 99.5059 586.346"
       stroke="#171717"
       stroke-width="3"
       stroke-linecap="round"
       stroke-linejoin="round"
       id="path652" />
    <path
       d="M178.502 508.668L178.171 510.378L174.591 528.759L163.389 586.347"
       stroke="#171717"
       stroke-width="3"
       stroke-linecap="round"
       stroke-linejoin="round"
       id="path654" />
    <path
       d="M95.5039 570.701L99.5059 586.347"
       stroke="#171717"
       stroke-width="3"
       stroke-linecap="round"
       stroke-linejoin="round"
       id="path656" />
    <path
       d="M79.6074 508.668L80.1804 510.911L85.1174 530.197L87.0884 537.859L95.4944 570.701"
       stroke="#171717"
       stroke-width="3"
       stroke-linecap="round"
       stroke-linejoin="round"
       id="path658" />
    <path
       d="M85.1163 530.201C85.1163 530.201 50.8973 545.375 73.1163 560.951C77.7923 564.229 84.9613 567.527 95.4893 570.705H95.4993"
       stroke="#171717"
       stroke-width="3"
       stroke-linecap="round"
       stroke-linejoin="round"
       id="path660" />
    <path
       d="M668.648 560.946C668.648 560.946 672.016 560.332 677.195 559.498C680.775 558.925 685.219 558.241 690.016 557.577C694.621 556.934 699.538 556.31 704.316 555.828C712.551 554.993 720.344 554.55 725.372 555.073C729.551 555.401 733.641 556.453 737.459 558.181C742.185 560.493 743.18 563.108 743.18 563.108"
       stroke="#171717"
       stroke-width="3"
       stroke-linecap="round"
       stroke-linejoin="round"
       id="path662" />
    <path
       d="m 144.19323,343.73514 9.05798,-16.02961"
       stroke="#171717"
       stroke-width="4.41709"
       stroke-linecap="round"
       stroke-linejoin="round"
       id="path682" />
    <path
       d="M 156.82169,342.21861 140.08534,330.39406"
       stroke="#171717"
       stroke-width="4.41709"
       stroke-linecap="round"
       stroke-linejoin="round"
       id="path684" />
    <path
       d="M342.488 402.664C342.754 432.731 341.775 462.776 339.551 492.801"
       stroke="#171717"
       stroke-width="3"
       stroke-linecap="round"
       stroke-linejoin="round"
       id="path702" />
    <path
       d="M405.691 426.426L401.072 420.752"
       stroke="#171717"
       stroke-width="3"
       stroke-linecap="round"
       stroke-linejoin="round"
       id="path704" />
    <path
       d="M367.051 459.14L373.412 450.248"
       stroke="#171717"
       stroke-width="3"
       stroke-linecap="round"
       stroke-linejoin="round"
       id="path706" />
    <path
       d="M406.505 486.64L401.15 481.705"
       stroke="#171717"
       stroke-width="3"
       stroke-linecap="round"
       stroke-linejoin="round"
       id="path708" />
    <path
       d="M311.976 448.801L304.523 441.701"
       stroke="#171717"
       stroke-width="3"
       stroke-linecap="round"
       stroke-linejoin="round"
       id="path710" />
    <path
       d="M255.266 428.973L259.548 421.889"
       stroke="#171717"
       stroke-width="3"
       stroke-linecap="round"
       stroke-linejoin="round"
       id="path712" />
    <path
       d="M263.476 482.001L257 477.145"
       stroke="#171717"
       stroke-width="3"
       stroke-linecap="round"
       stroke-linejoin="round"
       id="path714" />
    <path
       d="M208.384 450.474C205.891 449.522 203.705 447.905 202.064 445.799"
       stroke="#171717"
       stroke-width="3"
       stroke-linecap="round"
       stroke-linejoin="round"
       id="path716" />
    <path
       d="M201.309 514.49L206.309 504.922"
       stroke="#171717"
       stroke-width="3"
       stroke-linecap="round"
       stroke-linejoin="round"
       id="path718" />
    <path
       d="M255.925 533.949C253.52 532.041 251.534 529.658 250.09 526.949"
       stroke="#171717"
       stroke-width="3"
       stroke-linecap="round"
       stroke-linejoin="round"
       id="path720" />
    <path
       d="M297.193 514.528L301.483 507.094"
       stroke="#171717"
       stroke-width="3"
       stroke-linecap="round"
       stroke-linejoin="round"
       id="path722" />
    <path
       d="M344.952 532.602L338.131 527.018"
       stroke="#171717"
       stroke-width="3"
       stroke-linecap="round"
       stroke-linejoin="round"
       id="path724" />
    <g
       opacity="0.1"
       id="g730"
       style="stroke-width:0.6;stroke-dasharray:none">
      <path
         d="m 365.9,286.957 c -10.145,-3.534 -30.86857,-5.15828 -40.85657,-1.56928 -10.442,3.752 -13.18294,10.047 -14.85843,24.45128 -3.278,12.071 -0.257,25.314 0.389,37.542 l 1.016,19.239 c 0.231,4.381 2.195,13.144 -1.928,16.263 -1.729,1.307 -4.7,1.693 -6.681,2.555 -2.193,0.884 -4.161,2.245 -5.762,3.985 -3.446,3.845 -3.873,9.925 -8.016,13.095 -3.847,2.944 -9.676,3.17 -14.273,3.951 -6.475,1.1 -12.934,2.322 -19.387,3.543 -23.378,4.426 -47.52,10.042 -67.544,23.52 -19.925,13.412 -34.961,33.365 -37.451,57.7 -0.415,4.061 3.766,7.547 7.547,7.547 4.426,0 7.131,-3.474 7.547,-7.547 1.965,-19.214 15.5,-35.388 31,-45.881 18.577,-12.572 40.805,-17.883 62.47,-22.38 10.776,-2.237 22.352,-3.5 32.479,-8 4.16,-1.851 7.911,-4.643 10.1,-8.721 0.964,-2.018 1.755,-4.113 2.365,-6.263 1.23,-3.655 2.44,-4.15 5.92,-5.33 10.293,-3.49 13.562,-11.1 13.292,-21.548 -0.322,-12.431 -1.171,-24.834 -1.231,-37.272 -0.06,-12.381 -2.15,-24.6 6.829,-34.537 4.351,-4.813 10.568,-7.015 16.794,-8.142 6.694,-1.212 13.723,-0.4 20.23,-2.315 0.415,-0.129 0.779,-0.387 1.037,-0.736 0.258,-0.35 0.397,-0.773 0.397,-1.208 0,-0.435 -0.139,-0.858 -0.397,-1.208 -0.258,-0.349 -0.622,-0.607 -1.037,-0.735 z"
         fill="#171717"
         id="path728"
         sodipodi:nodetypes="cccccccccscccscccccccccccccsccc"
         style="stroke-width:0.6;stroke-dasharray:none" />
    </g>
    <g
       opacity="0.1"
       id="g734">
      <path
         d="M171.41 528.433C172.81 530.265 173.417 531.921 175.361 533.402C176.91 534.505 178.626 535.354 180.444 535.915C184.508 537.361 188.731 538.539 192.901 539.631C200.683 541.669 208.524 543.469 216.424 545.031C233.23 548.369 250.216 550.719 267.297 552.068C301.025 554.817 334.968 553.195 368.28 547.244C372.221 546.532 374.367 541.783 373.42 538.191C372.295 533.925 368.287 532.524 364.367 533.051C332.512 537.416 300.283 538.382 268.223 535.932C252.286 534.661 236.439 532.439 220.767 529.277C212.879 527.686 205.047 525.85 197.26 523.822C193.666 522.884 190.07 521.958 186.471 521.042C184.619 520.458 182.713 520.065 180.781 519.869C178.151 519.751 176.552 520.786 174.212 521.551C171.656 522.385 169.461 525.891 171.412 528.436L171.41 528.433Z"
         fill="#171717"
         id="path732" />
    </g>
    <g
       id="Hairstyle/ 31"
       transform="matrix(0.16306401,0,0,0.13937913,246.80821,229.60207)">
      <path
         id="path908"
         fill-rule="evenodd"
         clip-rule="evenodd"
         d="m 304.306,565.52 c 32.937,20.231 61.205,107.192 61.205,107.192 0,0 -0.259,-70.904 27.489,-112.712 27.749,-41.808 67.001,-77 67.001,-77 0,0 -7,-16 -15.561,-31.05 -8.56,-15.051 -44.541,-42.66 -44.541,-42.66 0,0 182.635,56.941 242.713,45.067 60.078,-11.873 107.009,-34.055 137.903,-89.408 30.894,-55.354 36.075,-151.701 36.075,-151.701 0,0 -83.176,53.218 -120.758,47.246 -37.582,-5.971 -56.064,-22.314 -75.88,-52.586 -7.691,-11.749 -26.792,-45.438 -26.792,-45.438 0,0 -6.741,22.896 -6.343,29.609 1.388,23.422 6.799,26.98 -1.136,22.814 -16.463,-8.643 -33.951,-17.752 -52.357,-27.486 -14.27,-7.546 -35.694,-36.624 -35.694,-36.624 0,0 -6.595,20.106 -3.982,34.672 1.644,9.16 17.173,38.852 17.173,38.852 0,0 -25.169,-24.836 -68.727,-25.362 -25.239,-0.304 -61.145,11.872 -108.117,23.66 -7.072,1.775 -22.153,-0.697 -22.153,-0.697 l 42.443,23.48 c 0,0 -79.733,25.804 -98.478,51.717 -6.389,8.831 -15.388,20.76 -23.007,37.801 -7.285,16.294 -21.266,65.43 -21.266,65.43 0,0 8.284,-23.15 26.363,-39.348 18.079,-16.199 57.655,-18.972 57.655,-18.972 0,0 -54.317,32.808 -63.425,68.478 -9.107,35.671 19.226,162.194 19.226,162.194 0,0 20.033,-27.399 52.971,-7.168 z"
         fill="#000000"
         stroke="#000000"
         stroke-width="12"
         stroke-linecap="round"
         stroke-linejoin="round" />
    </g>
    <path
       d="m 123.93272,385.92215 6.152,-10.887"
       stroke="#171717"
       stroke-width="3"
       stroke-linecap="round"
       stroke-linejoin="round"
       id="path682-5-8" />
    <path
       d="m 132.50972,384.89215 -11.367,-8.031"
       stroke="#171717"
       stroke-width="3"
       stroke-linecap="round"
       stroke-linejoin="round"
       id="path684-5-8" />
    <path
       d="m 76.07377,348.83147 6.152,-10.887"
       stroke="#171717"
       stroke-width="3"
       stroke-linecap="round"
       stroke-linejoin="round"
       id="path682-5-4" />
    <path
       d="m 84.65077,347.80147 -11.367,-8.031"
       stroke="#171717"
       stroke-width="3"
       stroke-linecap="round"
       stroke-linejoin="round"
       id="path684-5-0" />
    <path
       d="m 109.28015,439.68533 6.152,-10.887"
       stroke="#171717"
       stroke-width="3"
       stroke-linecap="round"
       stroke-linejoin="round"
       id="path682-2" />
    <path
       d="m 117.85715,438.65533 -11.367,-8.031"
       stroke="#171717"
       stroke-width="3"
       stroke-linecap="round"
       stroke-linejoin="round"
       id="path684-3" />
    <path
       d="m 91.046081,481.16379 6.152,-10.887"
       stroke="#171717"
       stroke-width="3"
       stroke-linecap="round"
       stroke-linejoin="round"
       id="path682-5-8-71" />
    <path
       d="m 99.623081,480.13379 -11.367,-8.031"
       stroke="#171717"
       stroke-width="3"
       stroke-linecap="round"
       stroke-linejoin="round"
       id="path684-5-8-89" />
    <path
       d="M 46.950517,442.75724 58.499336,422.31966"
       stroke="#171717"
       stroke-width="5.63174"
       stroke-linecap="round"
       stroke-linejoin="round"
       id="path682-5-4-3" />
    <path
       d="M 63.051658,440.82368 41.713,425.74751"
       stroke="#171717"
       stroke-width="5.63174"
       stroke-linecap="round"
       stroke-linejoin="round"
       id="path684-5-0-7" />
    <path
       d="m 142.66995,450.29261 11.54882,-20.43758"
       stroke="#171717"
       stroke-width="5.63174"
       stroke-linecap="round"
       stroke-linejoin="round"
       id="path682-5-4-3-9" />
    <path
       d="M 158.77109,448.35905 137.43244,433.28288"
       stroke="#171717"
       stroke-width="5.63174"
       stroke-linecap="round"
       stroke-linejoin="round"
       id="path684-5-0-7-2" />
    <path
       d="m 247.75265,65.35309 6.152,-10.887"
       stroke="#171717"
       stroke-width="3"
       stroke-linecap="round"
       stroke-linejoin="round"
       id="path682-05" />
    <path
       d="m 256.32965,64.32309 -11.367,-8.031"
       stroke="#171717"
       stroke-width="3"
       stroke-linecap="round"
       stroke-linejoin="round"
       id="path684-6" />
    <path
       d="m 95.57264,275.79193 6.152,-10.887"
       stroke="#171717"
       stroke-width="3"
       stroke-linecap="round"
       stroke-linejoin="round"
       id="path682-5-9" />
    <path
       d="m 104.14964,274.76193 -11.367,-8.031"
       stroke="#171717"
       stroke-width="3"
       stroke-linecap="round"
       stroke-linejoin="round"
       id="path684-5-7" />
    <path
       d="m 124.28801,209.98587 6.152,-10.887"
       stroke="#171717"
       stroke-width="3"
       stroke-linecap="round"
       stroke-linejoin="round"
       id="path682-5-1-7" />
    <path
       d="m 132.86501,208.95587 -11.367,-8.031"
       stroke="#171717"
       stroke-width="3"
       stroke-linecap="round"
       stroke-linejoin="round"
       id="path684-5-14-9" />
    <path
       d="m 65.865219,228.53794 9.057979,-16.02961"
       stroke="#171717"
       stroke-width="4.41709"
       stroke-linecap="round"
       stroke-linejoin="round"
       id="path682-4-5" />
    <path
       d="M 78.493679,227.02141 61.757325,215.19686"
       stroke="#171717"
       stroke-width="4.41709"
       stroke-linecap="round"
       stroke-linejoin="round"
       id="path684-8-3" />
    <path
       d="m 45.60471,270.72495 6.152,-10.887"
       stroke="#171717"
       stroke-width="3"
       stroke-linecap="round"
       stroke-linejoin="round"
       id="path682-5-8-04-3" />
    <path
       d="m 54.18171,269.69495 -11.367,-8.031"
       stroke="#171717"
       stroke-width="3"
       stroke-linecap="round"
       stroke-linejoin="round"
       id="path684-5-8-0-3" />
    <path
       d="m -2.25424,233.63427 6.152,-10.887"
       stroke="#171717"
       stroke-width="3"
       stroke-linecap="round"
       stroke-linejoin="round"
       id="path682-5-4-5-8" />
    <path
       d="m 6.32276,232.60427 -11.367,-8.031"
       stroke="#171717"
       stroke-width="3"
       stroke-linecap="round"
       stroke-linejoin="round"
       id="path684-5-0-70-5" />
    <path
       d="m 28.86628,164.20765 6.152,-10.887"
       stroke="#171717"
       stroke-width="3"
       stroke-linecap="round"
       stroke-linejoin="round"
       id="path682-5-8-78-8" />
    <path
       d="m 37.44328,163.17765 -11.367,-8.031"
       stroke="#171717"
       stroke-width="3"
       stroke-linecap="round"
       stroke-linejoin="round"
       id="path684-5-8-06-9" />
    <path
       d="m 227.97086,295.12613 6.152,-10.887"
       stroke="#171717"
       stroke-width="3"
       stroke-linecap="round"
       stroke-linejoin="round"
       id="path682-43" />
    <path
       d="m 236.54786,294.09613 -11.367,-8.031"
       stroke="#171717"
       stroke-width="3"
       stroke-linecap="round"
       stroke-linejoin="round"
       id="path684-0" />
    <path
       d="m 209.73679,336.60459 6.152,-10.887"
       stroke="#171717"
       stroke-width="3"
       stroke-linecap="round"
       stroke-linejoin="round"
       id="path682-5-8-4" />
    <path
       d="m 218.31379,335.57459 -11.367,-8.031"
       stroke="#171717"
       stroke-width="3"
       stroke-linecap="round"
       stroke-linejoin="round"
       id="path684-5-8-87" />
    <path
       style="fill:#000000;stroke-width:2.236;stroke-dasharray:none"
       d="m 477.76819,178.84025 12.26702,6.45633 9.68449,-5.81069 17.43208,10.33012 h 3.22816 l -21.95151,-29.05347 z"
       id="path2755"
       sodipodi:nodetypes="ccccccc" />
    <path
       style="fill:#000000;stroke-width:1.58911;stroke-dasharray:none"
       d="m 427.59167,185.48909 5.82259,3.76487 6.27024,-4.53303 c 6.63622,2.98316 6.98099,3.51888 13.37653,8.05873 L 437.57664,170.1145 Z"
       id="path2755-3"
       sodipodi:nodetypes="cccccc" />
  </g>
  <g
     id="notion-avatar-glasses"
     transform="matrix(0.17631429,0,0,0.19170854,228.4366,202.70835)">
    <!--?xml version="1.0" encoding="UTF-8"?-->
    <title
       id="title902">Glasses/ 2</title>
    <g
       id="Glasses/-2"
       stroke="none"
       stroke-width="1"
       fill="none"
       fill-rule="evenodd"
       stroke-linecap="round"
       stroke-linejoin="round">
      <path
         d="m 574.18984,502.35399 c 12.42224,0.89369 26.82876,4.00814 43.21955,9.34337 4.69795,1.52918 12.11164,2.4151 22.24108,2.65775 l 0.68644,-0.0175 c 9.77859,-0.26571 16.96347,-1.14578 21.55464,-2.64021 16.3908,-5.33523 30.79732,-8.44968 43.21956,-9.34337 17.58532,-1.26513 45.9194,0.86082 85.00222,6.37785 l 1.18762,0.16822 v 20.7292 c -5.00302,2.19902 -7.54871,4.38104 -7.63708,6.54606 C 781.48185,589.63484 763.63986,606 723.65829,606 c -38.50594,0 -56.79811,-20.90401 -73.09771,-64.36963 -2.13656,-5.6975 -5.66783,-8.60559 -10.59379,-8.72429 l -0.31632,-0.004 c -5.09138,0 -8.72808,2.90936 -10.9101,8.72808 C 612.44076,585.09599 594.1486,606 555.64266,606 c -39.98158,0 -57.82357,-16.36516 -60.00559,-69.82468 -0.0884,-2.16487 -2.63371,-4.34675 -7.63606,-6.54562 L 488,530 431.22626,518.68039 393.15934,537.31534 487.999,509 488,508.9001 c 39.69694,-5.64196 68.42688,-7.82398 86.18984,-6.54607 z m -9.57822,6.6175 c -31.63931,-2.18203 -45.82245,4.36404 -52.36851,12.00111 -6.54607,7.63708 -18.54718,74.18872 39.27638,77.46175 57.82356,3.27304 63.27861,-64.36962 60.00558,-72.00669 -3.27303,-7.63708 -15.27414,-15.27415 -46.91345,-17.45617 z m 149.96932,0 c -31.63931,2.18202 -43.64042,9.81909 -46.91345,17.45617 -3.27304,7.63707 2.18202,75.27973 60.00558,72.00669 57.82356,-3.27303 45.82244,-69.82467 39.27638,-77.46175 -6.54606,-7.63707 -20.7292,-14.18314 -52.36851,-12.00111 z"
         id="path904"
         stroke="#000000"
         stroke-width="4"
         fill="#000000"
         sodipodi:nodetypes="ssccsscccsssccsssccccccssssssssssss" />
    </g>
  </g>
  <defs
     id="defs741">
    <clipPath
       id="clip0_510_1402">
      <rect
         width="884"
         height="804"
         fill="white"
         transform="translate(38 78)"
         id="rect738" />
    </clipPath>
  </defs>
  <g
     id="notion-avatar-beard"
     transform="matrix(0.14297712,0,0,0.15817583,256.57355,227.67012)">
    <g
       id="Beard/ 13"
       transform="translate(-14.185374,-13.405627)">
      <g
         id="Shape">
        <path
           fill-rule="evenodd"
           clip-rule="evenodd"
           d="m 369.784,644 c 23.345,81.816 50.012,126.483 80,134 44.983,11.275 49,-47 83,-66 34,-19 91,3 127,3 36,0 98.919,-14.293 112,-10 13.082,4.293 11.322,132.47 -47,194 -30.843,27.615 -43.385,27.571 -101,28 -57.614,0.429 -141.686,-12.286 -212,-70 -46.875,-38.476 -64.209,-109.476 -52,-213 z m 181,80 c -17.27,12.44 -49.269,60.317 -32,74 17.27,13.683 76.733,-2 115,-2 38.268,0 79.244,8.22 85,2 5.757,-6.22 3,-55 -13,-67 -16,-12 -49.09,5 -67,5 -17.909,0 -70.73,-24.44 -88,-12 z"
           fill="#000000"
           id="path920" />
        <path
           d="m 369.784,644 5.77,-1.646 c -0.735,-2.577 -3.09,-4.354 -5.77,-4.354 z m 80,134 -1.459,5.82 z m 275,121 4.002,4.47 c 0.123,-0.109 0.24,-0.223 0.353,-0.342 z m -313,-42 -3.807,4.638 z m -52,-213 v -6 c -3.042,0 -5.602,2.276 -5.958,5.297 z m 279,92 v -6 z m -274.77,-90.354 c 11.738,41.136 24.412,73.319 38.127,96.292 13.625,22.822 28.873,37.543 46.184,41.882 l 2.918,-11.64 c -12.677,-3.178 -25.757,-14.549 -38.798,-36.393 -12.952,-21.694 -25.283,-52.752 -36.891,-93.433 z m 84.311,138.174 c 12.616,3.162 22.92,1.515 31.623,-3.507 8.414,-4.856 14.814,-12.584 20.37,-20.518 2.797,-3.995 5.506,-8.234 8.159,-12.326 2.683,-4.139 5.337,-8.175 8.152,-11.998 5.645,-7.665 11.665,-14.088 19.082,-18.233 l -5.854,-10.476 c -9.582,5.355 -16.814,13.342 -22.891,21.594 -3.046,4.137 -5.87,8.437 -8.559,12.586 -2.72,4.196 -5.278,8.198 -7.919,11.97 -5.321,7.6 -10.486,13.514 -16.538,17.008 -5.765,3.326 -12.831,4.736 -22.707,2.26 z m 87.386,-66.582 c 15.095,-8.436 36.006,-8.044 59.015,-4.918 11.413,1.551 22.708,3.664 33.852,5.463 10.962,1.769 21.686,3.217 31.206,3.217 v -12 c -8.48,0 -18.381,-1.302 -29.294,-3.064 -10.73,-1.732 -22.561,-3.932 -34.148,-5.506 -22.99,-3.124 -47.58,-4.232 -66.485,6.332 z M 659.784,721 c 18.518,0 43.749,-3.657 65.42,-6.667 10.961,-1.522 21.027,-2.884 29.154,-3.605 4.062,-0.36 7.522,-0.549 10.295,-0.531 2.91,0.019 4.55,0.271 5.26,0.504 l 3.742,-11.402 c -2.559,-0.84 -5.748,-1.081 -8.923,-1.102 -3.313,-0.021 -7.196,0.202 -11.434,0.578 -8.475,0.752 -18.841,2.158 -29.745,3.672 -22.058,3.064 -46.287,6.553 -63.769,6.553 z m 110.129,-10.299 c -1.247,-0.409 -1.452,-1.172 -1.047,-0.476 0.324,0.559 0.781,1.63 1.254,3.384 0.938,3.473 1.68,8.613 2.05,15.199 0.737,13.103 -0.046,31.032 -3.042,50.83 -6.023,39.801 -20.781,85.781 -48.698,115.234 l 8.709,8.256 c 30.404,-32.077 45.688,-80.951 51.854,-121.694 3.099,-20.474 3.949,-39.24 3.158,-53.3 -0.393,-6.996 -1.204,-13.055 -2.446,-17.654 -0.616,-2.282 -1.406,-4.464 -2.465,-6.285 -0.978,-1.683 -2.703,-3.95 -5.585,-4.896 z M 720.782,894.53 c -15.094,13.514 -25.07,19.682 -37.893,22.839 -13.34,3.284 -30.021,3.414 -59.149,3.631 l 0.089,12 c 28.486,-0.212 46.884,-0.275 61.929,-3.979 15.563,-3.832 27.28,-11.45 43.028,-25.551 z M 623.74,921 c -56.839,0.424 -139.323,-12.144 -208.149,-68.638 l -7.614,9.276 C 479.778,920.573 565.438,933.435 623.829,933 Z M 415.591,852.362 C 371.172,815.902 353.6,747.662 365.743,644.703 l -11.917,-1.406 c -12.276,104.088 4.819,177.848 54.151,218.341 z M 359.784,650 h 10 v -12 h -10 z m 187.493,69.132 c -9.636,6.941 -22.493,22.874 -30.757,38.612 -4.156,7.914 -7.432,16.297 -8.402,23.912 -0.963,7.565 0.247,15.744 6.94,21.047 l 7.452,-9.406 c -1.942,-1.538 -3.207,-4.476 -2.488,-10.125 0.713,-5.598 3.278,-12.528 7.122,-19.849 7.736,-14.731 19.514,-28.956 27.147,-34.455 z m -32.219,83.571 c 5.867,4.648 14.458,6.283 23.283,6.749 9.081,0.479 19.706,-0.24 30.674,-1.351 C 591.4,805.832 615.046,802 633.784,802 v -12 c -19.529,0 -44.749,4.01 -65.979,6.162 -10.84,1.098 -20.711,1.735 -28.832,1.306 -8.377,-0.442 -13.695,-1.978 -16.463,-4.171 z M 633.784,802 c 18.818,0 38.269,2.02 54.207,3.313 7.855,0.637 14.994,1.108 20.584,0.997 2.787,-0.055 5.438,-0.257 7.719,-0.741 2.076,-0.44 4.877,-1.314 6.894,-3.493 l -8.807,-8.152 c 0.578,-0.624 0.839,-0.394 -0.578,-0.094 -1.211,0.258 -3.005,0.434 -5.466,0.483 -4.908,0.097 -11.485,-0.321 -19.376,-0.961 C 673.405,792.09 653.234,790 633.784,790 Z m 89.404,0.076 c 1.857,-2.008 2.714,-4.796 3.197,-6.917 0.545,-2.396 0.877,-5.222 1.038,-8.244 0.324,-6.066 -0.007,-13.504 -1.035,-21.057 -1.027,-7.544 -2.779,-15.432 -5.405,-22.335 -2.566,-6.746 -6.249,-13.311 -11.599,-17.323 l -7.2,9.6 c 2.651,1.988 5.312,6.021 7.583,11.99 2.211,5.813 3.788,12.759 4.731,19.687 0.941,6.919 1.22,13.593 0.942,18.798 -0.14,2.613 -0.412,4.712 -0.756,6.221 -0.406,1.784 -0.722,1.881 -0.303,1.428 z M 709.384,726.2 c -5.378,-4.034 -11.857,-5.375 -18.2,-5.48 -6.335,-0.106 -13.072,1.013 -19.472,2.42 -6.254,1.375 -13.035,3.235 -18.551,4.556 -5.86,1.404 -10.676,2.304 -14.377,2.304 v 12 c 5.254,0 11.29,-1.225 17.172,-2.634 6.226,-1.491 12.075,-3.131 18.332,-4.506 6.111,-1.343 11.767,-2.224 16.696,-2.142 4.921,0.082 8.579,1.116 11.2,3.082 z m -70.6,3.8 c -3.544,0 -9.429,-1.281 -17.308,-3.416 -7.409,-2.007 -16.684,-4.795 -25.429,-7.058 -8.887,-2.299 -18.099,-4.302 -26.322,-4.884 -7.97,-0.564 -16.341,0.091 -22.448,4.49 l 7.014,9.736 c 2.528,-1.821 7.236,-2.776 14.587,-2.256 7.097,0.502 15.448,2.277 24.163,4.532 8.858,2.292 17.226,4.836 25.297,7.023 7.602,2.059 15.036,3.833 20.446,3.833 z"
           fill="#000000"
           id="path922" />
      </g>
    </g>
  </g>
  <g
     id="Face/-14"
     stroke="none"
     stroke-width="1"
     fill-rule="evenodd"
     stroke-linecap="round"
     stroke-linejoin="round"
     transform="matrix(0.14591298,0,0,0.21226721,256.20735,176.32342)">
    <path
       d="m 532,379 c 132.54834,0 240,107.45166 240,240 0,23.16011 11.23455,37.24468 5.45302,59.97925 C 763.58355,733.51792 758.70188,941.34367 598,909 539.61895,897.24994 461,880 433,858 405,836 342.17004,758.77284 320.18951,718.58499 317.49813,718.85968 314.76545,719 312,719 c -44.18278,0 -80,-35.81722 -80,-80 0,-39.86504 29.15884,-72.91967 67.31209,-78.99945 C 325.5993,455.97921 419.80992,379 532,379 Z m -236.1411,245.54519 8.2822,30.90962"
       id="Path"
       stroke="#000000"
       stroke-width="24" />
  </g>
</svg>
