<?xml version="1.0" encoding="UTF-8" standalone="no"?>
<svg
   width="702.24957"
   height="669.16077"
   viewBox="0 0 702.24957 669.16077"
   fill="none"
   version="1.1"
   id="svg820"
   sodipodi:docname="front_image.svg"
   inkscape:version="1.2.2 (b0a84865, 2022-12-01)"
   xmlns:inkscape="http://www.inkscape.org/namespaces/inkscape"
   xmlns:sodipodi="http://sodipodi.sourceforge.net/DTD/sodipodi-0.dtd"
   xmlns="http://www.w3.org/2000/svg"
   xmlns:svg="http://www.w3.org/2000/svg">
  <sodipodi:namedview
     id="namedview822"
     pagecolor="#ffffff"
     bordercolor="#000000"
     borderopacity="0.25"
     inkscape:showpageshadow="2"
     inkscape:pageopacity="0.0"
     inkscape:pagecheckerboard="0"
     inkscape:deskcolor="#d1d1d1"
     showgrid="false"
     inkscape:zoom="0.57969045"
     inkscape:cx="389.86324"
     inkscape:cy="273.42179"
     inkscape:window-width="1309"
     inkscape:window-height="661"
     inkscape:window-x="0"
     inkscape:window-y="38"
     inkscape:window-maximized="0"
     inkscape:current-layer="g813" />
  <g
     clip-path="url(#clip0_435_1378)"
     id="g813"
     transform="translate(-150.48503,-248.48636)">
    <path
       fill-rule="evenodd"
       clip-rule="evenodd"
       d="m 432.899,699.288 c 0,0 12.313,-43.367 17.259,-76.367 l -1.364,-0.201 c -5.379,-11.478 -18.924,-3.794 -19.424,-3.509 l -0.465,-0.138 c -0.263,0.894 -0.525,1.799 -0.784,2.712 0.247,-0.179 0.55,-0.285 0.878,-0.285 6.398,-0.003 12.774,0.748 18.996,2.236 0.806,0.193 1.303,1.002 1.11,1.808 -0.193,0.806 -1.002,1.303 -1.808,1.11 -5.993,-1.434 -12.134,-2.157 -18.296,-2.154 -0.624,0 -1.159,-0.38 -1.385,-0.922 -9.142,32.806 -15.917,75.413 -15.917,75.413 l 0.011,0.222 c 7.055,-0.364 14.125,-0.272 21.168,0.275 z"
       fill="#171717"
       id="path561" />
    <path
       fill-rule="evenodd"
       clip-rule="evenodd"
       d="m 681.584,747.015 0.021,0.422 -97.134,5.04 -0.021,-0.4 c 7.536,-18.886 26.643,-32.573 46.945,-33.629 20.302,-1.056 40.73,10.567 50.189,28.567 z M 248.438,894.031 c 41.449,18.547 88.224,22.542 133.467,18.685 h 0.003 c 35.499,-3.023 71.654,-11.203 100.938,-31.261 l 0.825,1.205 c 76.356,36.249 171.566,37.147 246.939,-1.1 52.62,-26.696 97.318,-72.386 114.026,-128.979 16.708,-56.593 1.458,-123.66 -44.07,-161.209 -29.697,-24.487 -68.504,-34.759 -106.476,-41.037 -42.633,-7.038 -81.725,-9.902 -124.907,-8.518 l -0.444,-0.38 c 0.116,-10.812 -1.449,-13.528 -7.43,-17.628 -5.981,-4.1 -13.675,-4.468 -20.914,-4.7 l -16.593,-0.539 -0.211,-0.37 c -11.543,6.217 -24.47,9.416 -37.581,9.3 -15.588,0 -29.877,-4.249 -41.016,-11.34 l -0.137,0.211 c -5.83,0.021 -11.578,1.381 -16.8,3.974 -9.427,4.46 -16.751,15.219 -13.718,25.195 -48.011,0.877 -89.757,17.321 -131.121,36.228 -41.364,18.907 -79.336,47.252 -103.971,85.487 -24.635,38.235 -34.717,86.978 -21.274,130.435 13.411,43.383 49.016,77.794 90.465,96.341 z m 201.721,-271.11 c -4.946,32.995 -17.259,76.367 -17.259,76.367 l -0.018,0.205 c 3.551,0.265 7.271,0.624 11.171,1.1 27.894,3.4 26.389,24.366 24.18,55.149 -0.056,0.778 -0.113,1.561 -0.169,2.351 l 0.021,0.434 -12,0.623 -84.166,4.375 c 2.6,-9.215 9.871,-12.337 15.43,-13.337 -5.971,-0.252 -13.2,-2.229 -10.442,-10.8 2.875,-8.951 10.061,-12.354 14.828,-13.643 -4.978,0.348 -12.365,-0.772 -13.337,-10.231 -0.814,-7.877 10.304,-14.979 33.311,-16.3 l -0.011,-0.222 c 0,0 7.419,-46.659 17.206,-79.918 5.613,-19.097 12,-33.776 18.2,-32.687 6.32,1.109 5.982,17.004 3.055,36.534 z m 325.095,-37.372 c -0.712,-0.424 -1.633,-0.19 -2.056,0.522 -0.424,0.712 -0.19,1.633 0.522,2.056 43.956,26.141 65.11,81.988 58.67,132.984 -6.44,50.989 -36.694,96.751 -74.978,131.396 -0.614,0.556 -0.661,1.504 -0.105,2.118 0.556,0.615 1.504,0.662 2.118,0.106 38.627,-34.955 69.384,-81.326 75.941,-133.244 6.556,-51.912 -14.916,-109.06 -60.112,-135.938 z"
       fill="#fafafa"
       id="path565"
       style="fill:#aaccff" />
    <path
       d="m 522.76981,320.16199 c -13.665,4.639 -76.768,26.04 -91.384,30.69 -16.413,5.221 -10.7,21.887 -10.7,21.887 l 7.747,36.683 c 0,0 -20.672,21.75 -34.854,10.061 v -1.49 c 14.182,-5.971 6.964,-37.792 6.964,-37.792 0,0 -4.466,-25.618 3.234,-44.018 7.7,-18.4 62.913,-32.582 81.313,-40.529 18.4,-7.947 25.861,-41.037 25.861,-41.037 l 9.944,24.371 28.6,-27.848 -11.435,38.289 c 0,0 47,-30.585 30.342,-16.412 -16.55,14.087 -34.928,91.807 -35.182,92.885 -5.443,-24.413 -10.45,-45.74 -10.45,-45.74 z"
       fill="#171717"
       id="path567" />
    <path
       d="m 538.541,449.358 c 7.483,8.084 11.879,17.976 11.879,28.65 0,16.55 -10.579,31.209 -26.822,40.192 -11.543,6.217 -24.47,9.416 -37.581,9.3 -15.588,0 -29.877,-4.249 -41.016,-11.34 -14.288,-9.078 -23.388,-22.8 -23.388,-38.152 0,-12.481 6.014,-23.895 15.948,-32.592 11.805,-10.357 29.137,-16.889 48.456,-16.889 21.676,0 40.846,8.223 52.524,20.831 z m -34.621,10.008 c 0,-9.617 -10.072,-17.417 -22.5,-17.417 -12.428,0 -22.5,7.8 -22.5,17.417 0,9.617 10.071,17.406 22.5,17.406 12.429,0 22.5,-7.8 22.5,-17.406 z"
       fill="#171717"
       id="path569" />
    <path
       d="m 447.1,586.387 c 6.32,1.109 5.982,17 3.055,36.534 l -1.364,-0.2 c -5.379,-11.478 -18.928,-3.794 -19.424,-3.509 l -0.465,-0.138 C 434.517,599.977 440.9,585.3 447.1,586.387 Z"
       fill="#171717"
       id="path571" />
    <path
       d="m 444.864,516.371 c -5.83,0.021 -11.578,1.381 -16.8,3.974 -9.427,4.46 -16.751,15.219 -13.718,25.195 -48.011,0.877 -89.756,17.332 -131.121,36.228 -41.365,18.896 -79.336,47.251 -103.971,85.487 -24.635,38.236 -34.717,86.978 -21.274,130.435 13.411,43.383 49.016,77.783 90.465,96.341 41.449,18.558 88.224,22.542 133.467,18.685 35.5,-3.023 71.654,-11.2 100.938,-31.262 1.395,-0.94 2.769,-1.923 4.122,-2.927 40.868,-30.257 60,-77.593 78.259,-125.045"
       stroke="#171717"
       stroke-width="3"
       stroke-linecap="round"
       stroke-linejoin="round"
       id="path579" />
    <path
       d="m 568.746,541.439 c 0.116,-10.812 -1.459,-13.528 -7.43,-17.628 -5.971,-4.1 -13.675,-4.471 -20.914,-4.7 l -16.593,-0.539"
       stroke="#171717"
       stroke-width="3"
       stroke-linecap="round"
       stroke-linejoin="round"
       id="path581" />
    <path
       d="m 569.191,541.819 c 43.182,-1.384 82.274,1.48 124.907,8.518 37.972,6.278 76.779,16.55 106.476,41.037 45.528,37.549 60.778,104.616 44.07,161.209 -16.708,56.593 -61.413,102.28 -114.033,128.976 -75.373,38.247 -170.583,37.349 -246.939,1.1"
       stroke="#171717"
       stroke-width="3"
       stroke-linecap="round"
       stroke-linejoin="round"
       id="path583" />
    <path
       d="m 456.088,759.147 11.995,-0.623 97.145,-5.042 19.244,-1.003 97.134,-5.041 6.743,-0.349 4.481,-103.443"
       stroke="#171717"
       stroke-width="3"
       stroke-linecap="round"
       stroke-linejoin="round"
       id="path585" />
    <path
       d="m 387.352,750.186 c -5.559,1 -12.83,4.122 -15.43,13.337"
       stroke="#171717"
       stroke-width="3"
       stroke-linecap="round"
       stroke-linejoin="round"
       id="path587" />
    <path
       d="m 387.352,750.185 c 2.327,0.089 4.658,-0.031 6.964,-0.359 -2.328,-0.182 -4.668,-0.061 -6.964,0.359 z"
       stroke="#171717"
       stroke-width="3"
       stroke-linecap="round"
       stroke-linejoin="round"
       id="path589" />
    <path
       d="m 391.738,725.74 c -4.767,1.289 -11.953,4.692 -14.828,13.643 -2.758,8.571 4.471,10.548 10.442,10.8"
       stroke="#171717"
       stroke-width="3"
       stroke-linecap="round"
       stroke-linejoin="round"
       id="path591" />
    <path
       d="m 391.736,725.741 c 1.544,-0.107 3.074,-0.369 4.565,-0.782 -1.544,0.101 -3.074,0.363 -4.565,0.782 z"
       stroke="#171717"
       stroke-width="3"
       stroke-linecap="round"
       stroke-linejoin="round"
       id="path593" />
    <path
       d="m 468.062,758.089 c 2.283,-32.064 4.587,-54.014 -24.011,-57.5 -3.9,-0.476 -7.62,-0.835 -11.171,-1.1 -7.043,-0.547 -14.113,-0.639 -21.168,-0.275 -23.007,1.321 -34.125,8.423 -33.311,16.3 0.972,9.459 8.359,10.579 13.337,10.231"
       stroke="#171717"
       stroke-width="3"
       stroke-linecap="round"
       stroke-linejoin="round"
       id="path595" />
    <path
       d="m 320.327,665.025 -5.475,101.456 57.069,-2.96 84.166,-4.375"
       stroke="#171717"
       stroke-width="3"
       stroke-linecap="round"
       stroke-linejoin="round"
       id="path597" />
    <path
       d="m 584.449,752.076 c 7.536,-18.886 26.643,-32.572 46.945,-33.629 20.302,-1.057 40.73,10.569 50.189,28.567"
       stroke="#171717"
       stroke-width="3"
       stroke-linecap="round"
       stroke-linejoin="round"
       id="path599" />
    <path
       d="m 538.541,449.358 c 7.483,8.084 11.879,17.976 11.879,28.65 0,16.55 -10.579,31.209 -26.822,40.192 -11.543,6.217 -24.47,9.416 -37.581,9.3 -15.588,0 -29.877,-4.249 -41.016,-11.34 -14.288,-9.078 -23.388,-22.8 -23.388,-38.152 0,-12.481 6.014,-23.895 15.948,-32.592 11.805,-10.357 29.137,-16.889 48.456,-16.889 21.676,0 40.846,8.223 52.524,20.831 z"
       stroke="#171717"
       stroke-width="3"
       stroke-linecap="round"
       stroke-linejoin="round"
       id="path601" />
    <path
       d="m 503.92,459.366 c 0,9.606 -10.072,17.406 -22.5,17.406 -12.428,0 -22.5,-7.8 -22.5,-17.406 0,-9.606 10.071,-17.417 22.5,-17.417 12.429,0 22.5,7.8 22.5,17.417 z"
       stroke="#171717"
       stroke-width="3"
       stroke-linecap="round"
       stroke-linejoin="round"
       id="path603" />
    <path
       d="m 437.076,444.844 -7.715,-36.577 -7.747,-36.683 c 0,0 -5.717,-16.666 10.7,-21.887 14.616,-4.65 77.719,-26.051 91.384,-30.69 l 2.61,-0.888"
       stroke="#171717"
       stroke-width="3"
       stroke-linecap="round"
       stroke-linejoin="round"
       id="path605" />
    <path
       d="m 534.145,364.748 c -5.443,-24.413 -10.452,-45.74 -10.452,-45.74"
       stroke="#171717"
       stroke-width="3"
       stroke-linecap="round"
       stroke-linejoin="round"
       id="path607" />
    <path
       d="m 540.137,449.019 c 0,0 7.048,-2.842 7.556,-14.277 0.274,-6.267 -6.953,-40.393 -13.548,-69.984"
       stroke="#171717"
       stroke-width="3"
       stroke-linecap="round"
       stroke-linejoin="round"
       id="path609" />
    <path
       d="m 475.63891,355.85151 c 0,0 3.31726,-2.64873 0.45326,-0.16473 -2.864,2.484 -0.26317,0.84922 1.96683,5.82522 2.23,4.976 21.887,51.964 21.887,51.964 0,0 3.234,4.228 -1.49,7.218 -4.724,2.99 -8.952,4.228 -11.192,4.228"
       stroke="#171717"
       stroke-width="3"
       stroke-linecap="round"
       stroke-linejoin="round"
       id="path611"
       sodipodi:nodetypes="csscsc" />
    <path
       d="m 458.921,381.487 -2.991,-8.909"
       stroke="#171717"
       stroke-width="3"
       stroke-linecap="round"
       stroke-linejoin="round"
       id="path613" />
    <path
       d="m 505.663,370.337 -1.743,-7.958"
       stroke="#171717"
       stroke-width="3"
       stroke-linecap="round"
       stroke-linejoin="round"
       id="path615" />
    <path
       d="m 468.863,454.082 c 0,0 0.994,9 17.153,6.774"
       stroke="#171717"
       stroke-width="3"
       stroke-linecap="round"
       stroke-linejoin="round"
       id="path617" />
    <path
       d="m 429.36,408.268 c 0,0 -20.672,21.75 -34.854,10.061"
       stroke="#171717"
       stroke-width="3"
       stroke-linecap="round"
       stroke-linejoin="round"
       id="path619" />
    <path
       d="m 534.145,364.758 v -0.01 c 0.254,-1.078 18.632,-78.8 35.182,-92.885 16.656,-14.173 -30.342,16.412 -30.342,16.412 l 11.435,-38.289 -28.6,27.848 -9.944,-24.371 c 0,0 -7.462,33.079 -25.861,41.037 -18.399,7.958 -73.6,22.13 -81.313,40.529 -7.713,18.399 -3.234,44.018 -3.234,44.018 0,0 7.218,31.821 -6.964,37.792"
       stroke="#171717"
       stroke-width="3"
       stroke-linecap="round"
       stroke-linejoin="round"
       id="path621" />
    <path
       d="m 411.699,698.992 c 0,0 7.419,-46.659 17.206,-79.918 5.611,-19.1 12,-33.776 18.2,-32.687 6.32,1.109 5.982,17 3.055,36.534 -4.946,33 -17.259,76.367 -17.259,76.367"
       stroke="#171717"
       stroke-width="3"
       stroke-linecap="round"
       stroke-linejoin="round"
       id="path629" />
    <path
       d="m 429.359,619.223 0.011,-0.01 c 0.5,-0.285 14.045,-7.969 19.424,3.509"
       stroke="#171717"
       stroke-width="3"
       stroke-linecap="round"
       stroke-linejoin="round"
       id="path631" />
    <path
       d="m 429.049,544.651 1.476,-14.922"
       stroke="#171717"
       stroke-width="3"
       stroke-linecap="round"
       stroke-linejoin="round"
       id="path661" />
    <path
       d="m 448.018,546.149 1.391,-13.438"
       stroke="#171717"
       stroke-width="3"
       stroke-linecap="round"
       stroke-linejoin="round"
       id="path663" />
    <path
       d="m 465.879,550.123 1.492,-12.93"
       stroke="#171717"
       stroke-width="3"
       stroke-linecap="round"
       stroke-linejoin="round"
       id="path665" />
    <path
       d="m 481.246,551.112 1.966,-13.928"
       stroke="#171717"
       stroke-width="3"
       stroke-linecap="round"
       stroke-linejoin="round"
       id="path667" />
    <path
       d="m 502.277,549.641 1.951,-12.936"
       stroke="#171717"
       stroke-width="3"
       stroke-linecap="round"
       stroke-linejoin="round"
       id="path669" />
    <path
       d="m 523.631,547.146 1.4,-15.923"
       stroke="#171717"
       stroke-width="3"
       stroke-linecap="round"
       stroke-linejoin="round"
       id="path671" />
    <path
       d="M 544.953,545.649 V 531.227"
       stroke="#171717"
       stroke-width="3"
       stroke-linecap="round"
       stroke-linejoin="round"
       id="path673" />
    <path
       d="m 809.537,689.131 1.728,1.205 -9.023,-14"
       stroke="#171717"
       stroke-width="3"
       stroke-linecap="round"
       stroke-linejoin="round"
       id="path675" />
    <path
       d="m 747.037,728.817 12.742,-14.12"
       stroke="#171717"
       stroke-width="3"
       stroke-linecap="round"
       stroke-linejoin="round"
       id="path677" />
    <path
       d="m 754.15,639.727 14.592,-16.028"
       stroke="#171717"
       stroke-width="3"
       stroke-linecap="round"
       stroke-linejoin="round"
       id="path679" />
    <path
       d="m 725.43,669.594 -7.5,-10.414"
       stroke="#171717"
       stroke-width="3"
       stroke-linecap="round"
       stroke-linejoin="round"
       id="path681" />
    <path
       d="m 702.7,605.8 c -4.922,-3.503 -9.145,-7.897 -12.45,-12.954"
       stroke="#171717"
       stroke-width="3"
       stroke-linecap="round"
       stroke-linejoin="round"
       id="path683" />
    <path
       d="m 647.58,655.531 c 2.161,-5.601 5.5,-10.673 9.789,-14.873"
       stroke="#171717"
       stroke-width="3"
       stroke-linecap="round"
       stroke-linejoin="round"
       id="path685" />
    <path
       d="M 617.813,594.387 607.369,581.705"
       stroke="#171717"
       stroke-width="3"
       stroke-linecap="round"
       stroke-linejoin="round"
       id="path687" />
    <path
       d="m 568.576,642.131 c 2.018,-4.832 5.074,-9.162 8.952,-12.682"
       stroke="#171717"
       stroke-width="3"
       stroke-linecap="round"
       stroke-linejoin="round"
       id="path689" />
    <path
       d="m 551.44,693.577 -14.057,-10.6"
       stroke="#171717"
       stroke-width="3"
       stroke-linecap="round"
       stroke-linejoin="round"
       id="path691" />
    <path
       d="m 631.908,702.62 -6.689,-8.225"
       stroke="#171717"
       stroke-width="3"
       stroke-linecap="round"
       stroke-linejoin="round"
       id="path693" />
    <path
       d="M 494.846,739.218 506.001,726.5"
       stroke="#171717"
       stroke-width="3"
       stroke-linecap="round"
       stroke-linejoin="round"
       id="path695" />
    <path
       d="m 475.262,665.215 11.482,-18.19"
       stroke="#171717"
       stroke-width="3"
       stroke-linecap="round"
       stroke-linejoin="round"
       id="path697" />
    <path
       d="m 507.866,602.94 -14.8,-12.086"
       stroke="#171717"
       stroke-width="3"
       stroke-linecap="round"
       stroke-linejoin="round"
       id="path699" />
    <path
       d="m 376.109,624.227 c 1.501,-4.516 4.059,-8.608 7.46,-11.936"
       stroke="#171717"
       stroke-width="3"
       stroke-linecap="round"
       stroke-linejoin="round"
       id="path701" />
    <path
       d="M 358.052,684.835 346.27,674.953"
       stroke="#171717"
       stroke-width="3"
       stroke-linecap="round"
       stroke-linejoin="round"
       id="path703" />
    <path
       d="m 306,618.268 8.945,-14.178"
       stroke="#171717"
       stroke-width="3"
       stroke-linecap="round"
       stroke-linejoin="round"
       id="path705" />
    <path
       d="m 274.653,686.145 -10.444,-8.206"
       stroke="#171717"
       stroke-width="3"
       stroke-linecap="round"
       stroke-linejoin="round"
       id="path707" />
    <path
       d="m 188,722.637 8.243,-15.647"
       stroke="#171717"
       stroke-width="3"
       stroke-linecap="round"
       stroke-linejoin="round"
       id="path709" />
    <path
       d="m 253.885,782.254 -13.6,-13.246"
       stroke="#171717"
       stroke-width="3"
       stroke-linecap="round"
       stroke-linejoin="round"
       id="path711" />
    <path
       d="m 253.57,851.623 11.22,-16.391"
       stroke="#171717"
       stroke-width="3"
       stroke-linecap="round"
       stroke-linejoin="round"
       id="path713" />
    <path
       d="M 357.564,812.129 345.6,797.982"
       stroke="#171717"
       stroke-width="3"
       stroke-linecap="round"
       stroke-linejoin="round"
       id="path715" />
    <path
       d="M 352.807,883.692 361.8,872.535"
       stroke="#171717"
       stroke-width="3"
       stroke-linecap="round"
       stroke-linejoin="round"
       id="path717" />
    <path
       d="M 447.693,810.007 435.764,795.082"
       stroke="#171717"
       stroke-width="3"
       stroke-linecap="round"
       stroke-linejoin="round"
       id="path719" />
    <path
       d="M 458.254,848.85 473.237,832.5"
       stroke="#171717"
       stroke-width="3"
       stroke-linecap="round"
       stroke-linejoin="round"
       id="path721" />
    <path
       d="m 593.85,787.674 -9.7,-11.938"
       stroke="#171717"
       stroke-width="3"
       stroke-linecap="round"
       stroke-linejoin="round"
       id="path723" />
    <path
       d="m 550.012,885.434 11.957,-9.672"
       stroke="#171717"
       stroke-width="3"
       stroke-linecap="round"
       stroke-linejoin="round"
       id="path725" />
    <path
       d="m 615.335,854.146 -9.829,-15.584"
       stroke="#171717"
       stroke-width="3"
       stroke-linecap="round"
       stroke-linejoin="round"
       id="path727" />
    <path
       d="m 666.301,809.982 13.3,-11.257 -1.369,1.559"
       stroke="#171717"
       stroke-width="3"
       stroke-linecap="round"
       stroke-linejoin="round"
       id="path729" />
    <path
       d="m 723.812,852.456 c -3.097,-4.459 -5.418,-9.41 -6.865,-14.644"
       stroke="#171717"
       stroke-width="3"
       stroke-linecap="round"
       stroke-linejoin="round"
       id="path731" />
    <path
       d="m 765.521,816.7 c 3.661,-4.234 8.259,-7.555 13.428,-9.7"
       stroke="#171717"
       stroke-width="3"
       stroke-linecap="round"
       stroke-linejoin="round"
       id="path733" />
    <path
       d="m 799.421,763.261 -10.12,-15.134"
       stroke="#171717"
       stroke-width="3"
       stroke-linecap="round"
       stroke-linejoin="round"
       id="path735" />
    <g
       opacity="0.1"
       id="g803">
      <path
         d="m 442.21,513.522 c -15.812,3.173 -28.36,17.851 -31.23,33.485 l 9.951,-7.576 c -7.654,0.548 -15.329,2.555 -22.84,4.092 -7.28,1.49 -14.543,3.051 -21.773,4.77 -14.431,3.432 -28.766,7.291 -42.888,11.836 -26.783,8.619 -53.022,19.664 -77.006,34.466 -44.688,27.579 -82.224,68.672 -96.012,120.289 -6.988,26.16 -7.67,54.4 -0.141,80.524 6.874,23.855 20.515,45.417 38,62.921 39.74,39.79 95.752,55.876 150.645,58.783 60.133,3.183 134.526,-6.592 168.269,-63.267 5.163,-8.671 -7.569,-19.236 -14.356,-11.077 -14.969,17.724 -34.151,31.404 -55.785,39.782 -25.609,9.751 -52.971,12.4 -80.185,12.3 -48.925,-0.179 -101.229,-9.693 -140.207,-41.3 -17.221,-13.964 -31.92,-31.5 -40.538,-52.088 -8.882,-21.215 -10.854,-45.167 -7.008,-67.749 8.083,-47.463 38.45,-86.443 77.473,-113.309 23.248,-16 48.915,-27.985 75.576,-37.091 14.911,-5.094 30.092,-9.367 45.39,-13.128 7.512,-1.846 15.045,-3.605 22.6,-5.277 7.752,-1.728 16,-2.739 23.534,-5.209 4.267,-1.4 7.671,-5.276 7.576,-9.951 -0.2,-9.736 5.975,-17.979 14.947,-21.764 8.717,-3.677 5.733,-16.415 -3.988,-14.464 z"
         fill="#171717"
         id="path801" />
    </g>
    <g
       opacity="0.1"
       id="g807">
      <path
         d="m 592.789,755.255 c 9.108,-2.572 16.488,-9.427 24.608,-14.138 4.02,-2.331 8.286,-4.334 12.153,-6.912 3.518,-2.345 8.329,-5.553 9.307,-9.861 0.265,-1.047 0.189,-2.151 -0.218,-3.151 -0.407,-1 -1.124,-1.844 -2.044,-2.407 -4.025,-2.316 -9.144,-0.841 -13.381,0.392 -5.046,1.469 -9.879,4.683 -14.256,7.5 -8.215,5.287 -18.262,11.213 -22.522,20.313 -1.99,4.252 1.307,9.688 6.353,8.263 z"
         fill="#171717"
         id="path805" />
    </g>
    <g
       opacity="0.1"
       id="g811">
      <path
         d="m 519.569,313.583 c -7.194,0.874 -14.027,4.722 -20.988,6.758 -7.316,2.14 -14.83,3.7 -22.25,5.439 -14.745,3.459 -31.565,6.721 -43.147,17.186 -12.023,10.864 -12.774,28.033 -10.025,42.905 1.465,7.922 4.332,15.475 6.43,23.233 1.144,3.795 1.899,7.695 2.254,11.642 0.26,4.278 -0.548,8.243 -0.972,12.479 -0.978,9.762 15,14.284 18.955,5.134 6.914,-16.014 0.3,-33.378 -4.41,-49.06 -3.048,-10.156 -6.579,-24.9 2.879,-32.85 4.979,-4.187 11.9,-6.34 17.981,-8.3 6.79,-2.192 13.707,-3.958 20.578,-5.872 6.993,-1.962 13.827,-4.453 20.443,-7.449 6.2,-2.792 13.722,-6.637 17.089,-12.847 1.806,-3.331 -0.371,-8.934 -4.817,-8.394 z"
         fill="#171717"
         id="path809" />
    </g>
    <g
       id="notion-avatar-glasses"
       transform="matrix(0.30925701,-0.10397565,0.16213883,0.4553955,185.01162,163.23766)">
      <!--?xml version="1.0" encoding="UTF-8"?-->
      <title
         id="title373">Glasses/ 2</title>
      <g
         id="Glasses/-2"
         stroke="none"
         stroke-width="1"
         fill="none"
         fill-rule="evenodd"
         stroke-linecap="round"
         stroke-linejoin="round">
        <path
           d="m 619.40271,555.36455 c 5.09497,1.61716 13.09441,2.60811 23.99833,2.97283 l 0.73802,-0.01 c 10.5129,-0.15894 23.54702,1.14992 28.44639,-0.3247 17.49109,-5.2645 31.256,-6.82113 44.59622,-7.59149 18.88485,-1.09054 32.91117,-0.18241 75.10451,5.90702 l 1.14947,0.0752 c 6.19483,9.24635 5.10895,17.11436 5.48032,25.90633 -0.92019,54.6178 -16.25938,67.17561 -59.27232,66.71498 -41.42543,-0.44362 -65.08123,-18.05705 -83.7771,-62.67267 -2.45067,-5.84825 -6.32732,-8.8614 -11.62993,-9.03948 l -0.34041,-0.008 c -5.4774,-0.0587 -9.31216,2.87321 -11.50427,8.7956 -16.37497,44.24027 -36.6426,60.86449 -78.06803,60.42087 -43.01295,-0.46062 -61.49795,-12.86182 -65.27268,-67.52993 -0.1529,-2.21381 -2.94944,-4.47332 -8.38977,-6.7785 -4.07654,-22.75216 -89.36976,28.56256 9.96841,-19.43815 55.62197,-8.23285 83.99826,-6.52041 128.77284,2.59975 z m -56.87363,-3.39449 c -34.09643,-2.59484 -55.63395,0.62245 -62.47243,8.35317 -6.83849,7.73073 -11.51892,78.92767 50.77616,82.93934 62.29507,4.01168 76.14899,-67.65612 72.42391,-75.49996 -3.72509,-7.84386 -26.63121,-13.19771 -60.72764,-15.79255 z m 161.33986,1.72778 c -33.97992,1.86581 -58.42614,7.64725 -61.74343,15.41569 -3.3173,7.76843 19.16475,82.32514 81.28505,79.64582 62.12031,-2.67931 51.13496,-74.62393 43.88869,-82.50549 -7.24628,-7.88155 -29.45039,-14.42184 -63.43031,-12.55602 z"
           id="path375"
           stroke="#000000"
           stroke-width="4.19395"
           fill="#000000"
           sodipodi:nodetypes="cccsscccssccssscccssssssssss" />
      </g>
    </g>
  </g>
  <defs
     id="defs818">
    <clipPath
       id="clip0_435_1378">
      <rect
         width="884"
         height="875"
         fill="#ffffff"
         transform="translate(38,43)"
         id="rect815"
         x="0"
         y="0" />
    </clipPath>
  </defs>
</svg>
