<?xml version="1.0" encoding="UTF-8" standalone="no"?>
<svg
   width="960"
   height="960"
   viewBox="0 0 960 960"
   fill="none"
   version="1.1"
   id="svg820"
   sodipodi:docname="designer.svg"
   inkscape:version="1.2.2 (b0a84865, 2022-12-01)"
   xmlns:inkscape="http://www.inkscape.org/namespaces/inkscape"
   xmlns:sodipodi="http://sodipodi.sourceforge.net/DTD/sodipodi-0.dtd"
   xmlns="http://www.w3.org/2000/svg"
   xmlns:svg="http://www.w3.org/2000/svg">
  <sodipodi:namedview
     id="namedview822"
     pagecolor="#ffffff"
     bordercolor="#000000"
     borderopacity="0.25"
     inkscape:showpageshadow="2"
     inkscape:pageopacity="0.0"
     inkscape:pagecheckerboard="0"
     inkscape:deskcolor="#d1d1d1"
     showgrid="false"
     inkscape:zoom="0.51504865"
     inkscape:cx="405.78691"
     inkscape:cy="644.5993"
     inkscape:window-width="1309"
     inkscape:window-height="456"
     inkscape:window-x="0"
     inkscape:window-y="38"
     inkscape:window-maximized="0"
     inkscape:current-layer="g813" />
  <g
     clip-path="url(#clip0_435_1378)"
     id="g813">
    <path
       fill-rule="evenodd"
       clip-rule="evenodd"
       d="M432.899 699.288C432.899 699.288 445.212 655.921 450.158 622.921L448.794 622.72C443.415 611.242 429.87 618.926 429.37 619.211L428.905 619.073C428.642 619.967 428.38 620.872 428.121 621.785C428.368 621.606 428.671 621.5 428.999 621.5C435.397 621.497 441.773 622.248 447.995 623.736C448.801 623.929 449.298 624.738 449.105 625.544C448.912 626.35 448.103 626.847 447.297 626.654C441.304 625.22 435.163 624.497 429.001 624.5C428.377 624.5 427.842 624.12 427.616 623.578C418.474 656.384 411.699 698.991 411.699 698.991L411.71 699.213C418.765 698.849 425.835 698.941 432.878 699.488L432.899 699.288Z"
       fill="#171717"
       id="path561" />
    <path
       fill-rule="evenodd"
       clip-rule="evenodd"
       d="M681.584 747.015L681.605 747.437L584.471 752.477L584.45 752.077C591.986 733.191 611.093 719.504 631.395 718.448C651.697 717.392 672.125 729.015 681.584 747.015ZM248.438 894.031C289.887 912.578 336.662 916.573 381.905 912.716H381.908C417.407 909.693 453.562 901.513 482.846 881.455L483.671 882.66C560.027 918.909 655.237 919.807 730.61 881.56C783.23 854.864 827.928 809.174 844.636 752.581C861.344 695.988 846.094 628.921 800.566 591.372C770.869 566.885 732.062 556.613 694.09 550.335C651.457 543.297 612.365 540.433 569.183 541.817L568.739 541.437C568.855 530.625 567.29 527.909 561.309 523.809C555.328 519.709 547.634 519.341 540.395 519.109L523.802 518.57L523.591 518.2C512.048 524.417 499.121 527.616 486.01 527.5C470.422 527.5 456.133 523.251 444.994 516.16L444.857 516.371C439.027 516.392 433.279 517.752 428.057 520.345C418.63 524.805 411.306 535.564 414.339 545.54C366.328 546.417 324.582 562.861 283.218 581.768C241.854 600.675 203.882 629.02 179.247 667.255C154.612 705.49 144.53 754.233 157.973 797.69C171.384 841.073 206.989 875.484 248.438 894.031ZM450.159 622.921C445.213 655.916 432.9 699.288 432.9 699.288L432.882 699.493C436.433 699.758 440.153 700.117 444.053 700.593C471.947 703.993 470.442 724.959 468.233 755.742C468.177 756.52 468.12 757.303 468.064 758.093L468.085 758.527L456.085 759.15L371.919 763.525C374.519 754.31 381.79 751.188 387.349 750.188C381.378 749.936 374.149 747.959 376.907 739.388C379.782 730.437 386.968 727.034 391.735 725.745C386.757 726.093 379.37 724.973 378.398 715.514C377.584 707.637 388.702 700.535 411.709 699.214L411.698 698.992C411.698 698.992 419.117 652.333 428.904 619.074C434.517 599.977 440.904 585.298 447.104 586.387C453.424 587.496 453.086 603.391 450.159 622.921ZM775.254 585.549C774.542 585.125 773.621 585.359 773.198 586.071C772.774 586.783 773.008 587.704 773.72 588.127C817.676 614.268 838.83 670.115 832.39 721.111C825.95 772.1 795.696 817.862 757.412 852.507C756.798 853.063 756.751 854.011 757.307 854.625C757.863 855.24 758.811 855.287 759.425 854.731C798.052 819.776 828.809 773.405 835.366 721.487C841.922 669.575 820.45 612.427 775.254 585.549Z"
       fill="#FAFAFA"
       id="path565" />
    <path
       d="M523.693 319.008C510.028 323.647 446.925 345.048 432.309 349.698C415.896 354.919 421.609 371.585 421.609 371.585L429.356 408.268C429.356 408.268 408.684 430.018 394.502 418.329V416.839C408.684 410.868 401.466 379.047 401.466 379.047C401.466 379.047 397 353.429 404.7 335.029C412.4 316.629 467.613 302.447 486.013 294.5C504.413 286.553 511.874 253.463 511.874 253.463L521.818 277.834L550.418 249.986L538.983 288.275C538.983 288.275 585.983 257.69 569.325 271.863C552.775 285.95 534.397 363.67 534.143 364.748C528.7 340.335 523.693 319.008 523.693 319.008Z"
       fill="#171717"
       id="path567" />
    <path
       d="M538.541 449.358C546.024 457.442 550.42 467.334 550.42 478.008C550.42 494.558 539.841 509.217 523.598 518.2C512.055 524.417 499.128 527.616 486.017 527.5C470.429 527.5 456.14 523.251 445.001 516.16C430.713 507.082 421.613 493.36 421.613 478.008C421.613 465.527 427.627 454.113 437.561 445.416C449.366 435.059 466.698 428.527 486.017 428.527C507.693 428.527 526.863 436.75 538.541 449.358ZM503.92 459.366C503.92 449.749 493.848 441.949 481.42 441.949C468.992 441.949 458.92 449.749 458.92 459.366C458.92 468.983 468.991 476.772 481.42 476.772C493.849 476.772 503.92 468.972 503.92 459.366Z"
       fill="#171717"
       id="path569" />
    <path
       d="M447.1 586.387C453.42 587.496 453.082 603.387 450.155 622.921L448.791 622.721C443.412 611.243 429.863 618.927 429.367 619.212L428.902 619.074C434.517 599.977 440.9 585.3 447.1 586.387Z"
       fill="#171717"
       id="path571" />
    <path
       d="M444.864 516.371C439.034 516.392 433.286 517.752 428.064 520.345C418.637 524.805 411.313 535.564 414.346 545.54C366.335 546.417 324.59 562.872 283.225 581.768C241.86 600.664 203.889 629.019 179.254 667.255C154.619 705.491 144.537 754.233 157.98 797.69C171.391 841.073 206.996 875.473 248.445 894.031C289.894 912.589 336.669 916.573 381.912 912.716C417.412 909.693 453.566 901.516 482.85 881.454C484.245 880.514 485.619 879.531 486.972 878.527C527.84 848.27 546.972 800.934 565.231 753.482"
       stroke="#171717"
       stroke-width="3"
       stroke-linecap="round"
       stroke-linejoin="round"
       id="path579" />
    <path
       d="M568.746 541.439C568.862 530.627 567.287 527.911 561.316 523.811C555.345 519.711 547.641 519.34 540.402 519.111L523.809 518.572"
       stroke="#171717"
       stroke-width="3"
       stroke-linecap="round"
       stroke-linejoin="round"
       id="path581" />
    <path
       d="M569.191 541.819C612.373 540.435 651.465 543.299 694.098 550.337C732.07 556.615 770.877 566.887 800.574 591.374C846.102 628.923 861.352 695.99 844.644 752.583C827.936 809.176 783.231 854.863 730.611 881.559C655.238 919.806 560.028 918.908 483.672 882.659"
       stroke="#171717"
       stroke-width="3"
       stroke-linecap="round"
       stroke-linejoin="round"
       id="path583" />
    <path
       d="M456.088 759.147L468.083 758.524L565.228 753.482L584.472 752.479L681.606 747.438L688.349 747.089L692.83 643.646"
       stroke="#171717"
       stroke-width="3"
       stroke-linecap="round"
       stroke-linejoin="round"
       id="path585" />
    <path
       d="M387.352 750.186C381.793 751.186 374.522 754.308 371.922 763.523"
       stroke="#171717"
       stroke-width="3"
       stroke-linecap="round"
       stroke-linejoin="round"
       id="path587" />
    <path
       d="M387.352 750.185C389.679 750.274 392.01 750.154 394.316 749.826C391.988 749.644 389.648 749.765 387.352 750.185V750.185Z"
       stroke="#171717"
       stroke-width="3"
       stroke-linecap="round"
       stroke-linejoin="round"
       id="path589" />
    <path
       d="M391.738 725.74C386.971 727.029 379.785 730.432 376.91 739.383C374.152 747.954 381.381 749.931 387.352 750.183"
       stroke="#171717"
       stroke-width="3"
       stroke-linecap="round"
       stroke-linejoin="round"
       id="path591" />
    <path
       d="M391.736 725.741C393.28 725.634 394.81 725.372 396.301 724.959C394.757 725.06 393.227 725.322 391.736 725.741V725.741Z"
       stroke="#171717"
       stroke-width="3"
       stroke-linecap="round"
       stroke-linejoin="round"
       id="path593" />
    <path
       d="M468.062 758.089C470.345 726.025 472.649 704.075 444.051 700.589C440.151 700.113 436.431 699.754 432.88 699.489C425.837 698.942 418.767 698.85 411.712 699.214C388.705 700.535 377.587 707.637 378.401 715.514C379.373 724.973 386.76 726.093 391.738 725.745"
       stroke="#171717"
       stroke-width="3"
       stroke-linecap="round"
       stroke-linejoin="round"
       id="path595" />
    <path
       d="M320.327 665.025L314.852 766.481L371.921 763.521L456.087 759.146"
       stroke="#171717"
       stroke-width="3"
       stroke-linecap="round"
       stroke-linejoin="round"
       id="path597" />
    <path
       d="M584.449 752.076C591.985 733.19 611.092 719.504 631.394 718.447C651.696 717.39 672.124 729.016 681.583 747.014"
       stroke="#171717"
       stroke-width="3"
       stroke-linecap="round"
       stroke-linejoin="round"
       id="path599" />
    <path
       d="M538.541 449.358C546.024 457.442 550.42 467.334 550.42 478.008C550.42 494.558 539.841 509.217 523.598 518.2C512.055 524.417 499.128 527.616 486.017 527.5C470.429 527.5 456.14 523.251 445.001 516.16C430.713 507.082 421.613 493.36 421.613 478.008C421.613 465.527 427.627 454.113 437.561 445.416C449.366 435.059 466.698 428.527 486.017 428.527C507.693 428.527 526.863 436.75 538.541 449.358Z"
       stroke="#171717"
       stroke-width="3"
       stroke-linecap="round"
       stroke-linejoin="round"
       id="path601" />
    <path
       d="M503.92 459.366C503.92 468.972 493.848 476.772 481.42 476.772C468.992 476.772 458.92 468.972 458.92 459.366C458.92 449.76 468.991 441.949 481.42 441.949C493.849 441.949 503.92 449.749 503.92 459.366Z"
       stroke="#171717"
       stroke-width="3"
       stroke-linecap="round"
       stroke-linejoin="round"
       id="path603" />
    <path
       d="M437.076 444.844L429.361 408.267L421.614 371.584C421.614 371.584 415.897 354.918 432.314 349.697C446.93 345.047 510.033 323.646 523.698 319.007L526.308 318.119"
       stroke="#171717"
       stroke-width="3"
       stroke-linecap="round"
       stroke-linejoin="round"
       id="path605" />
    <path
       d="M534.145 364.748C528.702 340.335 523.693 319.008 523.693 319.008"
       stroke="#171717"
       stroke-width="3"
       stroke-linecap="round"
       stroke-linejoin="round"
       id="path607" />
    <path
       d="M540.137 449.019C540.137 449.019 547.185 446.177 547.693 434.742C547.967 428.475 540.74 394.349 534.145 364.758"
       stroke="#171717"
       stroke-width="3"
       stroke-linecap="round"
       stroke-linejoin="round"
       id="path609" />
    <path
       d="M517.352 341.867C517.352 341.867 484.284 349.328 481.42 351.812C478.556 354.296 475.829 356.536 478.059 361.512C480.289 366.488 499.946 413.476 499.946 413.476C499.946 413.476 503.18 417.704 498.456 420.694C493.732 423.684 489.504 424.922 487.264 424.922"
       stroke="#171717"
       stroke-width="3"
       stroke-linecap="round"
       stroke-linejoin="round"
       id="path611" />
    <path
       d="M458.921 381.487L455.93 372.578"
       stroke="#171717"
       stroke-width="3"
       stroke-linecap="round"
       stroke-linejoin="round"
       id="path613" />
    <path
       d="M505.663 370.337L503.92 362.379"
       stroke="#171717"
       stroke-width="3"
       stroke-linecap="round"
       stroke-linejoin="round"
       id="path615" />
    <path
       d="M468.863 454.082C468.863 454.082 469.857 463.082 486.016 460.856"
       stroke="#171717"
       stroke-width="3"
       stroke-linecap="round"
       stroke-linejoin="round"
       id="path617" />
    <path
       d="M429.36 408.268C429.36 408.268 408.688 430.018 394.506 418.329"
       stroke="#171717"
       stroke-width="3"
       stroke-linecap="round"
       stroke-linejoin="round"
       id="path619" />
    <path
       d="M534.145 364.758V364.748C534.399 363.67 552.777 285.948 569.327 271.863C585.983 257.69 538.985 288.275 538.985 288.275L550.42 249.986L521.82 277.834L511.876 253.463C511.876 253.463 504.414 286.542 486.015 294.5C467.616 302.458 412.415 316.63 404.702 335.029C396.989 353.428 401.468 379.047 401.468 379.047C401.468 379.047 408.686 410.868 394.504 416.839"
       stroke="#171717"
       stroke-width="3"
       stroke-linecap="round"
       stroke-linejoin="round"
       id="path621" />
    <path
       d="M411.699 698.992C411.699 698.992 419.118 652.333 428.905 619.074C434.516 599.974 440.905 585.298 447.105 586.387C453.425 587.496 453.087 603.387 450.16 622.921C445.214 655.921 432.901 699.288 432.901 699.288"
       stroke="#171717"
       stroke-width="3"
       stroke-linecap="round"
       stroke-linejoin="round"
       id="path629" />
    <path
       d="M429.359 619.223L429.37 619.213C429.87 618.928 443.415 611.244 448.794 622.722"
       stroke="#171717"
       stroke-width="3"
       stroke-linecap="round"
       stroke-linejoin="round"
       id="path631" />
    <path
       d="M429.049 544.651L430.525 529.729"
       stroke="#171717"
       stroke-width="3"
       stroke-linecap="round"
       stroke-linejoin="round"
       id="path661" />
    <path
       d="M448.018 546.149L449.409 532.711"
       stroke="#171717"
       stroke-width="3"
       stroke-linecap="round"
       stroke-linejoin="round"
       id="path663" />
    <path
       d="M465.879 550.123L467.371 537.193"
       stroke="#171717"
       stroke-width="3"
       stroke-linecap="round"
       stroke-linejoin="round"
       id="path665" />
    <path
       d="M481.246 551.112L483.212 537.184"
       stroke="#171717"
       stroke-width="3"
       stroke-linecap="round"
       stroke-linejoin="round"
       id="path667" />
    <path
       d="M502.277 549.641L504.228 536.705"
       stroke="#171717"
       stroke-width="3"
       stroke-linecap="round"
       stroke-linejoin="round"
       id="path669" />
    <path
       d="M523.631 547.146L525.031 531.223"
       stroke="#171717"
       stroke-width="3"
       stroke-linecap="round"
       stroke-linejoin="round"
       id="path671" />
    <path
       d="M544.953 545.649V531.227"
       stroke="#171717"
       stroke-width="3"
       stroke-linecap="round"
       stroke-linejoin="round"
       id="path673" />
    <path
       d="M809.537 689.131L811.265 690.336L802.242 676.336"
       stroke="#171717"
       stroke-width="3"
       stroke-linecap="round"
       stroke-linejoin="round"
       id="path675" />
    <path
       d="M747.037 728.817L759.779 714.697"
       stroke="#171717"
       stroke-width="3"
       stroke-linecap="round"
       stroke-linejoin="round"
       id="path677" />
    <path
       d="M754.15 639.727L768.742 623.699"
       stroke="#171717"
       stroke-width="3"
       stroke-linecap="round"
       stroke-linejoin="round"
       id="path679" />
    <path
       d="M725.43 669.594L717.93 659.18"
       stroke="#171717"
       stroke-width="3"
       stroke-linecap="round"
       stroke-linejoin="round"
       id="path681" />
    <path
       d="M702.7 605.8C697.778 602.297 693.555 597.903 690.25 592.846"
       stroke="#171717"
       stroke-width="3"
       stroke-linecap="round"
       stroke-linejoin="round"
       id="path683" />
    <path
       d="M647.58 655.531C649.741 649.93 653.08 644.858 657.369 640.658"
       stroke="#171717"
       stroke-width="3"
       stroke-linecap="round"
       stroke-linejoin="round"
       id="path685" />
    <path
       d="M617.813 594.387L607.369 581.705"
       stroke="#171717"
       stroke-width="3"
       stroke-linecap="round"
       stroke-linejoin="round"
       id="path687" />
    <path
       d="M568.576 642.131C570.594 637.299 573.65 632.969 577.528 629.449"
       stroke="#171717"
       stroke-width="3"
       stroke-linecap="round"
       stroke-linejoin="round"
       id="path689" />
    <path
       d="M551.44 693.577L537.383 682.977"
       stroke="#171717"
       stroke-width="3"
       stroke-linecap="round"
       stroke-linejoin="round"
       id="path691" />
    <path
       d="M631.908 702.62L625.219 694.395"
       stroke="#171717"
       stroke-width="3"
       stroke-linecap="round"
       stroke-linejoin="round"
       id="path693" />
    <path
       d="M494.846 739.218L506.001 726.5"
       stroke="#171717"
       stroke-width="3"
       stroke-linecap="round"
       stroke-linejoin="round"
       id="path695" />
    <path
       d="M475.262 665.215L486.744 647.025"
       stroke="#171717"
       stroke-width="3"
       stroke-linecap="round"
       stroke-linejoin="round"
       id="path697" />
    <path
       d="M507.866 602.94L493.066 590.854"
       stroke="#171717"
       stroke-width="3"
       stroke-linecap="round"
       stroke-linejoin="round"
       id="path699" />
    <path
       d="M376.109 624.227C377.61 619.711 380.168 615.619 383.569 612.291"
       stroke="#171717"
       stroke-width="3"
       stroke-linecap="round"
       stroke-linejoin="round"
       id="path701" />
    <path
       d="M358.052 684.835L346.27 674.953"
       stroke="#171717"
       stroke-width="3"
       stroke-linecap="round"
       stroke-linejoin="round"
       id="path703" />
    <path
       d="M306 618.268L314.945 604.09"
       stroke="#171717"
       stroke-width="3"
       stroke-linecap="round"
       stroke-linejoin="round"
       id="path705" />
    <path
       d="M274.653 686.145L264.209 677.939"
       stroke="#171717"
       stroke-width="3"
       stroke-linecap="round"
       stroke-linejoin="round"
       id="path707" />
    <path
       d="M188 722.637L196.243 706.99"
       stroke="#171717"
       stroke-width="3"
       stroke-linecap="round"
       stroke-linejoin="round"
       id="path709" />
    <path
       d="M253.885 782.254L240.285 769.008"
       stroke="#171717"
       stroke-width="3"
       stroke-linecap="round"
       stroke-linejoin="round"
       id="path711" />
    <path
       d="M253.57 851.623L264.79 835.232"
       stroke="#171717"
       stroke-width="3"
       stroke-linecap="round"
       stroke-linejoin="round"
       id="path713" />
    <path
       d="M357.564 812.129L345.6 797.982"
       stroke="#171717"
       stroke-width="3"
       stroke-linecap="round"
       stroke-linejoin="round"
       id="path715" />
    <path
       d="M352.807 883.692L361.8 872.535"
       stroke="#171717"
       stroke-width="3"
       stroke-linecap="round"
       stroke-linejoin="round"
       id="path717" />
    <path
       d="M447.693 810.007L435.764 795.082"
       stroke="#171717"
       stroke-width="3"
       stroke-linecap="round"
       stroke-linejoin="round"
       id="path719" />
    <path
       d="M458.254 848.85L473.237 832.5"
       stroke="#171717"
       stroke-width="3"
       stroke-linecap="round"
       stroke-linejoin="round"
       id="path721" />
    <path
       d="M593.85 787.674L584.15 775.736"
       stroke="#171717"
       stroke-width="3"
       stroke-linecap="round"
       stroke-linejoin="round"
       id="path723" />
    <path
       d="M550.012 885.434L561.969 875.762"
       stroke="#171717"
       stroke-width="3"
       stroke-linecap="round"
       stroke-linejoin="round"
       id="path725" />
    <path
       d="M615.335 854.146L605.506 838.562"
       stroke="#171717"
       stroke-width="3"
       stroke-linecap="round"
       stroke-linejoin="round"
       id="path727" />
    <path
       d="M666.301 809.982L679.601 798.725L678.232 800.284"
       stroke="#171717"
       stroke-width="3"
       stroke-linecap="round"
       stroke-linejoin="round"
       id="path729" />
    <path
       d="M723.812 852.456C720.715 847.997 718.394 843.046 716.947 837.812"
       stroke="#171717"
       stroke-width="3"
       stroke-linecap="round"
       stroke-linejoin="round"
       id="path731" />
    <path
       d="M765.521 816.7C769.182 812.466 773.78 809.145 778.949 807"
       stroke="#171717"
       stroke-width="3"
       stroke-linecap="round"
       stroke-linejoin="round"
       id="path733" />
    <path
       d="M799.421 763.261L789.301 748.127"
       stroke="#171717"
       stroke-width="3"
       stroke-linecap="round"
       stroke-linejoin="round"
       id="path735" />
    <g
       opacity="0.1"
       id="g803">
      <path
         d="M442.21 513.522C426.398 516.695 413.85 531.373 410.98 547.007L420.931 539.431C413.277 539.979 405.602 541.986 398.091 543.523C390.811 545.013 383.548 546.574 376.318 548.293C361.887 551.725 347.552 555.584 333.43 560.129C306.647 568.748 280.408 579.793 256.424 594.595C211.736 622.174 174.2 663.267 160.412 714.884C153.424 741.044 152.742 769.284 160.271 795.408C167.145 819.263 180.786 840.825 198.271 858.329C238.011 898.119 294.023 914.205 348.916 917.112C409.049 920.295 483.442 910.52 517.185 853.845C522.348 845.174 509.616 834.609 502.829 842.768C487.86 860.492 468.678 874.172 447.044 882.55C421.435 892.301 394.073 894.95 366.859 894.85C317.934 894.671 265.63 885.157 226.652 853.55C209.431 839.586 194.732 822.05 186.114 801.462C177.232 780.247 175.26 756.295 179.106 733.713C187.189 686.25 217.556 647.27 256.579 620.404C279.827 604.404 305.494 592.419 332.155 583.313C347.066 578.219 362.247 573.946 377.545 570.185C385.057 568.339 392.59 566.58 400.145 564.908C407.897 563.18 416.145 562.169 423.679 559.699C427.946 558.299 431.35 554.423 431.255 549.748C431.055 540.012 437.23 531.769 446.202 527.984C454.919 524.307 451.935 511.569 442.214 513.52L442.21 513.522Z"
         fill="#171717"
         id="path801" />
    </g>
    <g
       opacity="0.1"
       id="g807">
      <path
         d="M592.789 755.255C601.897 752.683 609.277 745.828 617.397 741.117C621.417 738.786 625.683 736.783 629.55 734.205C633.068 731.86 637.879 728.652 638.857 724.344C639.122 723.297 639.046 722.193 638.639 721.193C638.232 720.193 637.515 719.349 636.595 718.786C632.57 716.47 627.451 717.945 623.214 719.178C618.168 720.647 613.335 723.861 608.958 726.678C600.743 731.965 590.696 737.891 586.436 746.991C584.446 751.243 587.743 756.679 592.789 755.254V755.255Z"
         fill="#171717"
         id="path805" />
    </g>
    <g
       opacity="0.1"
       id="g811">
      <path
         d="M519.569 313.583C512.375 314.457 505.542 318.305 498.581 320.341C491.265 322.481 483.751 324.041 476.331 325.78C461.586 329.239 444.766 332.501 433.184 342.966C421.161 353.83 420.41 370.999 423.159 385.871C424.624 393.793 427.491 401.346 429.589 409.104C430.733 412.899 431.488 416.799 431.843 420.746C432.103 425.024 431.295 428.989 430.871 433.225C429.893 442.987 445.871 447.509 449.826 438.359C456.74 422.345 450.126 404.981 445.416 389.299C442.368 379.143 438.837 364.399 448.295 356.449C453.274 352.262 460.195 350.109 466.276 348.149C473.066 345.957 479.983 344.191 486.854 342.277C493.847 340.315 500.681 337.824 507.297 334.828C513.497 332.036 521.019 328.191 524.386 321.981C526.192 318.65 524.015 313.047 519.569 313.587V313.583Z"
         fill="#171717"
         id="path809" />
    </g>
  </g>
  <defs
     id="defs818">
    <clipPath
       id="clip0_435_1378">
      <rect
         width="884"
         height="875"
         fill="white"
         transform="translate(38 43)"
         id="rect815" />
    </clipPath>
  </defs>
</svg>
