<?xml version="1.0" encoding="utf-8"?>
<svg version="1.1" id="Layer_1" xmlns="http://www.w3.org/2000/svg" xmlns:xlink="http://www.w3.org/1999/xlink" x="0px" y="0px"
	 viewBox="0 0 189 189" enable-background="new 0 0 189 189" xml:space="preserve">
<circle fill="#FFFFFF" stroke="#000000" stroke-width="9" stroke-miterlimit="10" cx="94.5" cy="94.5" r="90"/>
<path d="M85.5,166.5c0-0.3,0-36,0-36h-9v9h-9v9h-9v9h-9v-18h9v-9h9v-9h9v-9h9v-9h-9v0v9h-9v9h-9v9h-9v-18h9v-9h9v-9h9v-9h9v-9h-9v9
	h-9v9h-9v-18h9v-9h9v-9h9v-27h9v-9h9v9v9h9v18h-9v9h9v-9h9v18h-9v9h-9v9h9v-9h9v-9h9v18h-9v9h-9v9h-9v9h9v-9h9v-9h9v-9h9v18h-9v9h-9
	v9h-18v36H85.5z M121.5,148.5l9,0l0,9l0,0h9v-9h-9v-9h9v-18h-9v9h-9L121.5,148.5L121.5,148.5z"/>
</svg>
